<svg width="215" height="193" viewBox="0 0 215 193" fill="none" xmlns="http://www.w3.org/2000/svg">
<path fill-rule="evenodd" clip-rule="evenodd" d="M100.366 0.807317C132.589 1.0011 166.877 4.11648 187.992 28.4839C209.968 53.8461 215.263 90.3128 205.844 122.536C197.042 152.649 171.182 173.466 142.154 185.299C115.517 196.157 85.8588 194.932 60.2146 181.898C35.262 169.215 19.7357 145.497 11.297 118.786C1.6452 88.2365 -7.88843 52.9845 11.4101 27.422C31.0416 1.41848 67.8063 0.611511 100.366 0.807317Z" fill="#F0392D" fill-opacity="0.08"/>
<path d="M157.064 79.613H118.529V41.0776V34.0776H111.529H98.5187H91.5187V41.0776V79.613H52.9834H45.9834V86.613V99.6231V106.623H52.9834H91.5187V145.158V152.158H98.5187H111.529H118.529V145.158V106.623H157.064H164.064V99.6231V86.613V79.613H157.064Z" fill="#F0392D" stroke="#F0392D" stroke-width="14"/>
<path d="M198.09 15.0106L188.239 9.2644L199.209 10.5315L199.168 0.788086L203.677 9.95713L211.13 1.69381L207.057 11.9923L214.776 12.7066L207.132 15.7572L212.803 24.1367L204.168 18.4334L201.3 26.8344L200.637 18.0268L191.662 22.336L198.09 15.0106Z" fill="#551AFE"/>
<path d="M14.8706 180.964L5.01953 175.218L15.9893 176.485L15.9484 166.742L20.4576 175.911L27.9099 167.647L23.8374 177.946L31.5564 178.66L23.9127 181.711L29.5836 190.09L20.9481 184.387L18.0804 192.788L17.4177 183.98L8.44233 188.29L14.8706 180.964Z" fill="#F0392D"/>
</svg>
