<svg width="97" height="32" viewBox="0 0 97 32" fill="none" xmlns="http://www.w3.org/2000/svg">
<g clip-path="url(#clip0_843_7315)">
<path d="M46.3796 23.2705C46.0194 23.5249 45.2819 23.743 44.4806 23.743C43.0099 23.743 42.3482 22.6127 42.3755 21.298C42.3987 20.2086 43.0771 18.9738 44.9142 18.9738L46.3796 18.9731V23.2705V23.2705ZM44.8672 11.1865C43.1217 11.1865 41.551 11.6804 39.9368 12.4827L39.5247 12.6953L40.5075 14.8898L41.0615 14.6276C42.2046 14.1158 43.4222 13.7724 44.5174 13.8183C45.8429 13.8735 46.3849 14.4816 46.3849 15.7506V16.4951H44.2178C40.7343 16.4951 38.5667 18.3433 38.5039 21.2125C38.5039 23.9392 40.7758 26.2863 43.9339 26.2863C46.4822 26.2863 48.6416 25.459 50.0964 24.0004V16.2198C50.0964 12.4312 47.3936 11.1865 44.8672 11.1865V11.1865ZM96.6058 23.7333V26.0343C96.6058 26.0343 95.8338 26.1819 95.2084 26.1819C92.2884 26.1819 90.5451 24.8052 90.5451 21.5906V8.033L94.2117 7.40791V21.8283C94.2117 22.9424 94.5316 23.6091 96.0543 23.7277C96.2621 23.743 96.6058 23.7333 96.6058 23.7333V23.7333ZM80.5235 16.8877C80.5855 15.4756 81.1727 14.0242 82.6171 14.0242C84.2423 14.0242 84.4822 15.7888 84.4822 16.8877H80.5235V16.8877ZM83.4077 23.7166C82.405 23.7166 81.7285 23.3875 81.2849 22.9085C80.6266 22.1973 80.335 20.7348 80.4144 19.1802H88.2999V18.8174C88.2297 13.6516 86.4696 11.2985 82.6171 11.2985C78.3169 11.2985 76.6421 15.2569 76.6106 18.9764C76.5843 21.3295 77.4709 23.6986 79.0922 25.0481C80.0799 25.8689 81.4494 26.324 83.0364 26.324C83.901 26.324 84.8051 26.1952 85.6291 25.9397C87.2111 25.4493 88.3786 24.6017 88.3786 24.6017L87.3474 22.4779C87.1616 22.618 85.5824 23.7166 83.4077 23.7166V23.7166ZM75.3251 23.7465V26.0147C75.3251 26.0147 74.6488 26.1491 73.9309 26.1491C70.9442 26.1491 69.1623 24.7059 69.1623 21.6546V8.03057L72.9114 7.42816V11.453H75.3239V14.1433H72.9114V21.8094C72.9114 22.813 73.2209 23.6803 74.7935 23.7355C75.0061 23.743 75.2852 23.743 75.3251 23.7465V23.7465ZM52.8349 12.0426L56.4926 11.4453V26.0224H52.8349V12.0426V12.0426ZM54.7013 5.62061C55.3374 5.62061 55.9263 5.86867 56.3589 6.31796C56.7862 6.76369 57.0119 7.34731 56.9926 7.96252C56.9926 9.25921 55.9718 10.279 54.6686 10.279C53.3677 10.279 52.3458 9.25629 52.3458 7.94745C52.3458 6.66534 53.4029 5.62061 54.7013 5.62061ZM68.1763 11.6666L67.1445 13.9822C67.1445 13.9822 66.555 13.7935 65.6475 13.8301C64.6659 13.8695 63.6333 14.2852 63.1472 14.7598V26.0329H59.4152L59.4176 14.0576C61.6397 11.6938 64.1054 11.2231 65.7115 11.2231C66.8207 11.2231 67.7754 11.4687 68.1763 11.6666V11.6666Z" fill="#111111"/>
<path d="M21.5079 0V0.0405063H21.1841V0.0810127H20.8198V0.121519H20.496V0.162025H20.2127V0.202532H20.0103V0.243038H19.8079V0.283544H19.6055V0.324051H19.4031V0.364557H19.2007V0.405063H18.9984V0.44557H18.8769V0.486076H18.715V0.526582H18.5531V0.567089H18.3912V0.607595H18.2698V0.648101H18.1079V0.688608H17.946V0.729114H17.7841V0.76962H17.6627V0.810127H17.5412V0.850633H17.4198V0.891139H17.2984V0.931646H17.1769V0.972152H17.0555V1.01266H16.9341V1.05316H16.8127V1.09367H16.6912V1.13418H16.5698V1.17468H16.4484V1.21519H16.3269V1.2557H16.2055V1.2962H16.0841V1.33671H16.0031V1.37722H15.8817V1.41772H15.8008V1.45823H15.6793V1.49873H15.5984V1.53924H15.4769V1.57975H15.3555V1.62025H15.2746V1.66076H15.1531V1.70127H15.0722V1.74177H14.9508V1.78228H14.8698V1.82278H14.7484V1.86329H14.6674V1.9038H14.5865V1.9443H14.5055V1.98481H14.3841V2.02532H14.3031V2.06582H14.2222V2.10633H14.1412V2.14684H14.0603V2.18734H13.9389V2.22785H13.8579V2.26835H13.7769V2.30886H13.696V2.34937H13.615V2.38987H13.4936V2.43038H13.4127V2.47089H13.3317V2.51139H13.2508V2.5519H13.1698V2.59241H13.0889V2.63291H13.0079V2.67342H12.9269V2.71392H12.846V2.75443H12.765V2.79494H12.6841V2.83544H12.6031V2.87595H12.5222V2.91646H12.4412V2.95696H12.3603V2.99747H12.2793V3.03797H12.1984V3.07848H12.1579V3.11899H12.0769V3.15949H11.996V3.2H11.915V3.24051H11.8341V3.28101H11.7531V3.32152H11.6722V3.36203H11.6317V3.40253H11.5508V3.44304H11.4698V3.48354H11.3889V3.52405H11.3484V3.56456H11.2674V3.60506H11.1865V3.64557H11.1055V3.68608H11.065V3.72658H10.9841V3.76709H10.9031V3.80759H10.8222V3.8481H10.7412V3.88861H10.7008V3.92911H10.6198V3.96962H10.5389V4.01013H10.4579V4.05063H10.4174V4.09114H10.3365V4.13165H10.296V4.17215H10.215V4.21266H10.1746V4.25316H10.0936V4.29367H10.0127V4.33418H9.97219V4.37468H9.89124V4.41519H9.85076V4.4557H9.76981V4.4962H9.68886V4.53671H9.64838V4.57722H9.56743V4.61772H9.52695V4.65823H9.446V4.69873H9.40552V4.73924H9.32457V4.77975H9.24362V4.82025H9.20314V4.86076H9.12219V4.90127H9.08171V4.94177H9.00076V4.98228H8.96029V5.02278H8.87933V5.06329H8.83886V5.1038H8.79838V5.1443H8.71743V5.18481H8.67695V5.22532H8.596V5.26582H8.55552V5.30633H8.47457V5.34684H8.4341V5.38734H8.39362V5.42785H8.31267V5.46835H8.27219V5.50886H8.19124V5.54937H8.15076V5.58987H8.06981V5.63038H8.02933V5.67089H7.98886V5.71139H7.90791V5.7519H7.86743V5.79241H7.78648V5.83291H7.746V5.87342H7.70553V5.91392H7.62457V5.95443H7.5841V5.99494H7.54362V6.03544H7.46267V6.07595H7.42219V6.11646H7.38172V6.15696H7.34124V6.19747H7.26029V6.23797H7.21981V6.27848H7.17934V6.31899H7.09838V6.35949H7.05791V6.4H7.01743V6.44051H6.97695V6.48101H6.896V6.52152H6.85553V6.56203H6.81505V6.60253H6.7341V6.64304H6.69362V6.68354H6.65315V6.72405H6.57219V6.76456H6.53172V6.80506H6.49124V6.84557H6.45076V6.88608H6.41029V6.92658H6.36981V6.96709H6.28886V7.00759H6.24838V7.0481H6.20791V7.08861H6.16743V7.12911H6.12696V7.16962H6.08648V7.21013H6.00553V7.25063H5.96505V7.29114H5.92457V7.33165H5.8841V7.37215H5.84362V7.41266H5.80315V7.45316H5.72219V7.49367H5.68172V7.53418H5.64124V7.57468H5.60077V7.61519H5.56029V7.6557H5.51981V7.6962H5.43886V7.73671H5.39839V7.77722H5.35791V7.81772H5.31743V7.85823H5.27696V7.89873H5.23648V7.93924H5.196V7.97975H5.15553V8.02025H5.11505V8.06076H5.07458V8.10127H5.0341V8.14177H4.99362V8.18228H4.95315V8.22278H4.91267V8.26329H4.8722V8.3038H4.83172V8.3443H4.79124V8.38481H4.75077V8.42532H4.71029V8.46582H4.66981V8.50633H4.62934V8.54684H4.54839V8.58734H4.50791V8.62785H4.46743V8.66835H4.42696V8.70886H4.38648V8.74937H4.34601V8.78987H4.30553V8.83038H4.26505V8.87089H4.22458V8.91139H4.1841V8.9519H4.14362V9.03291H4.10315V9.07342H4.06267V9.11392H4.0222V9.15443H3.98172V9.19494H3.94124V9.23544H3.90077V9.27595H3.86029V9.31646H3.81982V9.35696H3.77934V9.39747H3.73886V9.47848H3.69839V9.51899H3.65791V9.55949H3.61743V9.6H3.57696V9.64051H3.53648V9.68101H3.49601V9.72152H3.45553V9.76203H3.41505V9.80253H3.37458V9.88354H3.3341V9.92405H3.29363V9.96456H3.25315V10.0051H3.21267V10.0456H3.1722V10.0861H3.13172V10.1671H3.09124V10.2076H3.05077V10.2481H3.01029V10.3291H2.96982V10.3696H2.92934V10.4101H2.88886V10.4506H2.84839V10.5316H2.80791V10.5722H2.76744V10.6127H2.72696V10.6937H2.68648V10.7342H2.64601V10.7747H2.60553V10.8152H2.56506V10.8962H2.52458V10.9367H2.4841V10.9772H2.44363V11.0582H2.40315V11.0987H2.36267V11.1392H2.3222V11.2203H2.28172V11.2608H2.24125V11.3418H2.20077V11.3823H2.16029V11.4228H2.11982V11.5038H2.07934V11.5443H2.03887V11.6253H1.99839V11.6658H1.95791V11.7468H1.91744V11.8278H1.87696V11.8684H1.83648V11.9494H1.79601V11.9899H1.75553V12.0709H1.71506V12.1519H1.67458V12.1924H1.6341V12.2734H1.59363V12.3139H1.55315V12.3949H1.51268V12.4759H1.4722V12.557H1.43172V12.638H1.39125V12.6785H1.35077V12.7595H1.31029V12.8405H1.26982V12.9215H1.22934V13.0025H1.18887V13.0835H1.14839V13.1646H1.10791V13.2456H1.06744V13.3266H1.02696V13.4076H0.986485V13.5291H0.946009V13.6101H0.905533V13.6911H0.865057V13.8127H0.824581V13.8937H0.784105V14.0152H0.743629V14.1367H0.703152V14.2177H0.662676V14.3797H0.6222V14.5013H0.581724V14.6228H0.541248V14.7848H0.500772V14.9873H0.460296V15.1494H0.419819V15.4329H0.379343V15.919H0.338867V16.3646H0.379343V16.7696H0.419819V16.9722H0.460296V17.1342H0.500772V17.2962H0.541248V17.4177H0.581724V17.5392H0.6222V17.6608H0.662676V17.7418H0.703152V17.8228H0.743629V17.9038H0.784105V17.9848H0.824581V18.0658H0.865057V18.1468H0.905533V18.2278H0.946009V18.2684H0.986485V18.3494H1.02696V18.3899H1.06744V18.4709H1.10791V18.5114H1.14839V18.5924H1.18887V18.6329H1.22934V18.6734H1.26982V18.7139H1.31029V18.7544H1.35077V18.7949H1.39125V18.8354H1.43172V18.8759H1.4722V18.9165H1.51268V18.957H1.55315V18.9975H1.59363V19.038H1.6341V19.0785H1.67458V19.119H1.71506V19.1595H1.75553V19.2H1.79601V19.2405H1.83648V19.281H1.87696V19.3215H1.91744V19.362H1.99839V19.4025H2.03887V19.443H2.11982V19.4835H2.16029V19.5241H2.24125V19.5646H2.28172V19.6051H2.36267V19.6456H2.40315V19.6861H2.4841V19.7266H2.52458V19.7671H2.60553V19.8076H2.64601V19.8481H2.72696V19.8886H2.80791V19.9291H2.92934V19.9696H3.01029V20.0101H3.09124V20.0506H3.21267V20.0911H3.29363V20.1316H3.37458V20.1722H3.53648V20.2127H3.73886V20.2532H3.94124V20.2937H4.14362V20.3342H5.15553V20.2937H5.43886V20.2532H5.68172V20.2127H5.84362V20.1722H6.00553V20.1316H6.12696V20.0911H6.24838V20.0506H6.41029V20.0101H6.53172V19.9696H6.61267V19.9291H6.7341V19.8886H6.81505V19.8481H6.896V19.8076H7.01743V19.7671H7.09838V19.7266H7.17934V19.6861H7.26029V19.6456H7.34124V19.6051H7.42219V19.5646H7.50314V19.5241H7.5841V19.4835H7.66505V19.443H7.746V19.4025H7.82695V19.362H7.90791V19.3215H7.98886V19.281H8.02933V19.2405H8.11029V19.2H8.15076V19.1595H8.23172V19.119H8.31267V19.0785H8.35314V19.038H8.4341V18.9975H8.51505V18.957H8.55552V18.9165H8.63648V18.8759H8.67695V18.8354H8.75791V18.7949H8.79838V18.7544H8.87933V18.7139H8.91981V18.6734H9.00076V18.6329H9.04124V18.5924H9.12219V18.5519H9.16267V18.5114H9.24362V18.4709H9.28409V18.4304H9.36505V18.3899H9.40552V18.3494H9.446V18.3089H9.52695V18.2684H9.56743V18.2278H9.6079V18.1873H9.68886V18.1468H9.72933V18.1063H9.81028V18.0658H9.85076V18.0253H9.89124V17.9848H9.97219V17.9443H10.0127V17.9038H10.0531V17.8633H10.1341V17.8228H10.1746V17.7823H10.215V17.7418H10.296V17.7013H10.3365V17.6608H10.377V17.6203H10.4579V17.5797H10.4984V17.5392H10.5389V17.4987H10.6198V17.4582H10.6603V17.4177H10.7008V17.3772H10.7412V17.3367H10.8222V17.2962H10.8627V17.2557H10.9031V17.2152H10.9841V17.1747H11.0246V17.1342H11.065V17.0937H11.146V17.0532H11.1865V17.0127H11.2269V16.9722H11.2674V16.9316H11.3484V16.8911H11.3889V16.8506H11.4293V16.8101H11.5103V16.7696H11.5508V16.7291H11.5912V16.6886H11.6722V16.6481H11.7127V16.6076H11.7531V16.5671H11.8341V16.5266H11.8746V16.4861H11.915V16.4456H11.996V16.4051H12.0365V16.3646H12.0769V16.3241H12.1579V16.2835H12.1984V16.243H12.2793V16.2025H12.3198V16.162H12.3603V16.1215H12.4412V16.081H12.4817V16.0405H12.5627V16H12.6031V15.9595H12.6841V15.919H12.7246V15.8785H12.8055V15.838H12.846V15.7975H12.9269V15.757H12.9674V15.7165H13.0079V15.6759H13.0889V15.6354H13.1293V15.5949H13.2103V15.5544H13.2508V15.5139H13.3317V15.4734H13.3722V15.4329H13.4531V15.3924H13.4936V15.3519H13.5746V15.3114H13.615V15.2709H13.696V15.2304H13.7365V15.1899H13.8174V15.1494H13.8579V15.1089H13.9389V15.0684H13.9793V15.0278H14.0603V14.9873H14.1008V14.9468H14.1412V14.9063H14.2222V14.8658H14.2627V14.8253H14.3436V14.7848H14.3841V14.7443H14.465V14.7038H14.5055V14.6633H14.5865V14.6228H14.6269V14.5823H14.7079V14.5418H14.7484V14.5013H14.8293V14.4608H14.8698V14.4203H14.9508V14.3797H14.9912V14.3392H15.0722V14.2987H15.1127V14.2582H15.1936V14.2177H15.2341V14.1772H15.315V14.1367H15.3555V14.0962H15.4365V14.0557H15.4769V14.0152H15.5579V13.9747H15.5984V13.9342H15.6793V13.8937H15.7198V13.8532H15.8008V13.8127H15.8412V13.7722H15.9222V13.7316H15.9627V13.6911H16.0436V13.6506H16.0841V13.6101H16.165V13.5696H16.2055V13.5291H16.2865V13.4886H16.3269V13.4481H16.4079V13.4076H16.4888V13.3671H16.5293V13.3266H16.6103V13.2861H16.6508V13.2456H16.7317V13.2051H16.7722V13.1646H16.8531V13.1241H16.8936V13.0835H16.9746V13.043H17.015V13.0025H17.096V12.962H17.1769V12.9215H17.2174V12.881H17.2984V12.8405H17.3388V12.8H17.4198V12.7595H17.5008V12.719H17.5412V12.6785H17.6222V12.638H17.6627V12.5975H17.7436V12.557H17.7841V12.5165H17.865V12.4759H17.946V12.4354H17.9865V12.3949H18.0674V12.3544H18.1484V12.3139H18.1888V12.2734H18.2698V12.2329H18.3508V12.1924H18.3912V12.1519H18.4722V12.1114H18.5531V12.0709H18.5936V12.0304H18.6746V11.9899H18.7555V11.9494H18.796V11.9089H18.8769V11.8684H18.9579V11.8278H18.9984V11.7873H19.0793V11.7468H19.1603V11.7063H19.2412V11.6658H19.2817V11.6253H19.3627V11.5848H19.4436V11.5443H19.5246V11.5038H19.565V11.4633H19.646V11.4228H19.7269V11.3823H19.8079V11.3418H19.8888V11.3013H19.9293V11.2608H20.0103V11.2203H20.0912V11.1797H20.1722V11.1392H20.2531V11.0987H20.3341V11.0582H20.415V11.0177H20.496V10.9772H20.5769V10.9367H20.6579V10.8962H20.7388V10.8557H20.8198V10.8152H20.9007V10.7747H20.9412V10.7342H21.0627V10.6937H21.1436V10.6532H21.2246V10.6127H21.3055V10.5722H21.3865V10.5316H21.5079V10.4911H21.5888V10.4506H21.6698V10.4101H21.7507V10.3696H21.8317V10.3291H21.9531V10.2886H22.0341V10.2481H22.1555V10.2076H22.2365V10.1671H22.3579V10.1266H22.4793V10.0861H22.5603V10.0456H22.6817V10.0051H22.7627V9.96456H22.8841V9.92405H23.046V9.88354H23.1674V9.84304H23.3293V9.80253H23.4507V9.76203H23.6126V9.72152H23.7746V9.68101H23.9769V9.64051H24.2198V9.6H24.4222V9.55949H25.1103V9.51899H25.1912V9.55949H25.5555V9.6H25.8793V9.64051H26.0007V9.68101H26.1222V9.72152H26.2436V9.76203H26.3246V9.80253H26.446V9.84304H26.5269V9.88354H26.6079V9.92405H26.6484V9.96456H26.7293V10.0051H26.8103V10.0456H26.8507V10.0861H26.9317V10.1266H26.9722V10.1671H27.0531V10.2076H27.0936V10.2481H27.1341V10.2886H27.1746V10.3291H27.215V10.3696H27.2555V10.4101H27.296V10.4506H27.3365V10.4911H27.3769V10.5316H27.4174V10.5722H27.4579V10.6127H27.4984V10.6937H27.5388V10.7342H27.5793V10.7747H27.6198V10.8557H27.6603V10.8962H27.7007V10.9772H27.7412V11.0177H27.7817V11.0987H27.8222V11.1797H27.8626V11.2203H27.9031V11.3013H27.9436V11.3823H27.9841V11.4633H28.0245V11.5443H28.065V11.6658H28.1055V11.7468H28.146V11.8684H28.1865V11.9494H28.2269V12.0709H28.2674V12.1924H28.3079V12.3544H28.3484V12.4759H28.3888V12.638H28.4293V12.881H28.4698V13.0835H28.5103V13.5291H28.5507V14.5418H28.5103V14.8658H28.4698V15.2304H28.4293V15.4329H28.3888V15.6354H28.3484V15.7975H28.3079V16H28.2674V16.162H28.2269V16.3241H28.1865V16.4456H28.146V16.5671H28.1055V16.6886H28.065V16.8506H28.0245V16.9722H27.9841V17.0937H27.9436V17.2152H27.9031V17.2962H27.8626V17.4177H27.8222V17.4987H27.7817V17.6203H27.7412V17.7013H27.7007V17.8228H27.6603V17.9038H27.6198V18.0253H27.5793V18.1063H27.5388V18.1873H27.4984V18.2684H27.4579V18.3494H27.4174V18.4709H27.3769V18.5519H27.3365V18.6329H27.296V18.7139H27.2555V18.7949H27.215V18.8354H27.1746V18.9165H27.1341V18.9975H27.0936V19.0785H27.0531V19.1595H27.0126V19.2H26.9722V19.281H26.9317V19.362H26.8912V19.4025H26.8507V19.4835H26.8103V19.5646H26.7698V19.6051H26.7293V19.6861H26.6888V19.7671H26.6484V19.8076H26.6079V19.8886H26.5674V19.9291H26.5269V20.0101H26.4865V20.0506H26.446V20.1316H26.4055V20.1722H26.365V20.2532H26.3246V20.2937H26.2841V20.3747H26.2436V20.4152H26.2031V20.4962H26.1626V20.5367H26.1222V20.5772H26.0817V20.6582H26.0412V20.6987H26.0007V20.7392H25.9603V20.8203H25.9198V20.8608H25.8793V20.9013H25.8388V20.9823H25.7984V21.0228H25.7579V21.1038H25.7174V21.1443H25.6769V21.1848H25.6365V21.2253H25.596V21.3063H25.5555V21.3468H25.515V21.3873H25.4746V21.4278H25.4341V21.5089H25.3936V21.5494H25.3531V21.5899H25.3126V21.6304H25.2722V21.7114H25.2317V21.7519H25.1912V21.7924H25.1507V21.8329H25.1103V21.8734H25.0698V21.9544H25.0293V21.9949H24.9888V22.0354H24.9484V22.0759H24.9079V22.1165H24.8674V22.1975H24.8269V22.238H24.7865V22.2785H24.746V22.319H24.7055V22.3595H24.665V22.4H24.6246V22.4405H24.5841V22.481H24.5436V22.562H24.5031V22.6025H24.4626V22.643H24.4222V22.6835H24.3817V22.7241H24.3412V22.7646H24.3007V22.8051H24.2603V22.8456H24.2198V22.8861H24.1793V22.9671H24.1388V23.0076H24.0984V23.0481H24.0579V23.0886H24.0174V23.1291H23.9769V23.1696H23.9365V23.2101H23.896V23.2506H23.8555V23.2911H23.815V23.3316H23.7746V23.3722H23.7341V23.4127H23.6936V23.4532H23.6531V23.4937H23.6126V23.5342H23.5722V23.5747H23.5317V23.6152H23.4912V23.6557H23.4507V23.6962H23.4103V23.7367H23.3698V23.7772H23.3293V23.8177H23.2888V23.8582H23.2484V23.8987H23.2079V23.9392H23.1674V23.9797H23.1269V24.0203H23.0865V24.0608H23.046V24.1013H23.0055V24.1418H22.965V24.1823H22.9246V24.2228H22.8841V24.2633H22.8436V24.3038H22.8031V24.3443H22.7627V24.3848H22.7222V24.4253H22.6817V24.4658H22.6412V24.5063H22.6007V24.5468H22.5603V24.5873H22.5198V24.6278H22.4793V24.6684H22.3984V24.7089H22.3579V24.7494H22.3174V24.7899H22.2769V24.8304H22.2365V24.8709H22.196V24.9114H22.1555V24.9519H22.115V24.9924H22.0746V25.0329H22.0341V25.0734H21.9531V25.1139H21.9127V25.1544H21.8722V25.1949H21.8317V25.2354H21.7912V25.2759H21.7507V25.3165H21.7103V25.357H21.6698V25.3975H21.5888V25.438H21.5484V25.4785H21.5079V25.519H21.4674V25.5595H21.4269V25.6H21.3865V25.6405H21.346V25.681H21.265V25.7215H21.2246V25.762H21.1841V25.8025H21.1436V25.843H21.1031V25.8835H21.0222V25.9241H20.9817V25.9646H20.9412V26.0051H20.9007V26.0456H20.8603V26.0861H20.7793V26.1266H20.7388V26.1671H20.6984V26.2076H20.6579V26.2481H20.6174V26.2886H20.5365V26.3291H20.496V26.3696H20.4555V26.4101H20.415V26.4506H20.3341V26.4911H20.2936V26.5316H20.2531V26.5722H20.2127V26.6127H20.1317V26.6532H20.0912V26.6937H20.0507V26.7342H20.0103V26.7747H19.9293V26.8152H19.8888V26.8557H19.8484V26.8962H19.8079V26.9367H19.7269V26.9772H19.6865V27.0177H19.646V27.0582H19.565V27.0987H19.5246V27.1392H19.4841V27.1797H19.4031V27.2203H19.3627V27.2608H19.3222V27.3013H19.2412V27.3418H19.2007V27.3823H19.1603V27.4228H19.0793V27.4633H19.0388V27.5038H18.9984V27.5443H18.9174V27.5848H18.8769V27.6253H18.8365V27.6658H18.7555V27.7063H18.715V27.7468H18.6341V27.7873H18.5936V27.8278H18.5531V27.8684H18.4722V27.9089H18.4317V27.9494H18.3508V27.9899H18.3103V28.0304H18.2293V28.0709H18.1888V28.1114H18.1484V28.1519H18.0674V28.1924H18.0269V28.2329H17.946V28.2734H17.9055V28.3139H17.8246V28.3544H17.7841V28.3949H17.7031V28.4354H17.6627V28.4759H17.5817V28.5165H17.5412V28.557H17.4603V28.5975H17.4198V28.638H17.3388V28.6785H17.2984V28.719H17.2174V28.7595H17.1365V28.8H17.096V28.8405H17.015V28.881H16.9746V28.9215H16.8936V28.962H16.8127V29.0025H16.7722V29.043H16.6912V29.0835H16.6508V29.1241H16.5698V29.1646H16.4888V29.2051H16.4079V29.2456H16.3674V29.2861H16.2865V29.3266H16.2055V29.3671H16.165V29.4076H16.0841V29.4481H16.0031V29.4886H15.9222V29.5291H15.8817V29.5696H15.8008V29.6101H15.7198V29.6506H15.6388V29.6911H15.5579V29.7316H15.4769V29.7722H15.4365V29.8127H15.3555V29.8532H15.2746V29.8937H15.1936V29.9342H15.1127V29.9747H15.0317V30.0152H14.9508V30.0557H14.8698V30.0962H14.7889V30.1367H14.6674V30.1772H14.5865V30.2177H14.5055V30.2582H14.4246V30.2987H14.3436V30.3392H14.2222V30.3797H14.1412V30.4203H14.0198V30.4608H13.9389V30.5013H13.8174V30.5418H13.696V30.5823H13.615V30.6228H13.4531V30.6633H13.3317V30.7038H13.2103V30.7443H13.0484V30.7848H12.846V30.8253H12.5627V30.8658H12.1579V30.8253H11.996V30.7848H11.8746V30.7443H11.7936V30.7038H11.7127V30.6633H11.6722V30.6228H11.6317V30.5823H11.5912V30.5418H11.5508V30.4608H11.5103V30.3797H11.4698V30.2987H11.4293V30.1772H11.3889V29.7722H11.4293V29.5696H11.4698V29.4481H11.5103V29.3266H11.5508V29.2456H11.5912V29.1646H11.6317V29.0835H11.6722V29.0025H11.7127V28.9215H11.7531V28.8405H11.7936V28.8H11.8341V28.719H11.8746V28.638H11.915V28.5975H11.9555V28.5165H11.996V28.4759H12.0365V28.3949H12.0769V28.3544H12.1174V28.2734H12.1579V28.2329H12.1984V28.1924H12.2389V28.1114H12.2793V28.0709H12.3198V28.0304H12.3603V27.9494H12.4008V27.9089H12.4412V27.8684H12.4817V27.7873H12.5222V27.7468H12.5627V27.7063H12.6031V27.6658H12.6436V27.6253H12.6841V27.5443H12.7246V27.5038H12.765V27.4633H12.8055V27.4228H12.846V27.3823H12.8865V27.3418H12.9269V27.2608H12.9674V27.2203H13.0079V27.1797H13.0484V27.1392H13.0889V27.0987H13.1293V27.0582H13.1698V27.0177H13.2103V26.9772H13.2508V26.9367H13.2912V26.8962H13.3317V26.8152H13.3722V26.7747H13.4127V26.7342H13.4531V26.6937H13.4936V26.6532H13.5341V26.6127H13.5746V26.5722H13.615V26.5316H13.6555V26.4911H13.696V26.4506H13.7365V26.4101H13.7769V26.3696H13.8174V26.3291H13.8579V26.2886H13.8984V26.2481H13.9389V26.2076H13.9793V26.1671H14.0198V26.1266H14.0603V26.0861H14.1008V26.0456H14.1412V26.0051H14.1817V25.9646H14.2222V25.9241H14.2627V25.8835H14.3031V25.843H14.3436V25.8025H14.3841V25.762H14.4246V25.7215H14.465V25.681H14.5055V25.6405H14.546V25.6H14.5865V25.5595H14.6269V25.519H14.6674V25.4785H14.7079V25.438H14.7484V25.3975H14.7889V25.357H14.8293V25.3165H14.8698V25.2759H14.9103V25.2354H14.9508V25.1949H14.9912V25.1544H15.0317V25.1139H15.0722V25.0734H15.1127V25.0329H15.1531V24.9924H15.1936V24.9519H15.2341V24.9114H15.2746V24.8709H15.315V24.8304H15.3555V24.7899H15.396V24.7494H15.4365V24.7089H15.4769V24.6684H15.5579V24.6278H15.5984V24.5468H15.6388V24.5063H15.6793V24.4658H15.7198V24.4253H15.7603V24.3848H15.8008V24.3443H15.8412V24.3038H15.8817V24.2633H15.9222V24.2228H15.9627V24.1823H16.0031V24.1418H16.0436V24.0608H16.0841V24.0203H16.1246V23.9797H16.165V23.9392H16.2055V23.8987H16.246V23.8582H16.2865V23.7772H16.3269V23.7367H16.3674V23.6962H16.4079V23.6152H16.4484V23.5747H16.4888V23.5342H16.5293V23.4937H16.5698V23.4127H16.6103V23.3722H16.6508V23.2911H16.6912V23.2506H16.7317V23.1696H16.7722V23.0886H16.8127V23.0481H16.8531V22.9671H16.8936V22.8861H16.9341V22.8456H16.9746V22.7241H17.015V22.6025H17.0555V22.481H17.096V22.4H17.1365V21.7924H17.096V21.6304H17.0555V21.5089H17.015V21.4684H16.9746V21.3873H16.9341V21.3468H16.8936V21.2658H16.8531V21.2253H16.8127V21.1848H16.7722V21.1443H16.7317V21.1038H16.6912V21.0633H16.6508V21.0228H16.6103V20.9823H16.5698V20.9418H16.4888V20.9013H16.4484V20.8608H16.3674V20.8203H16.3269V20.7797H16.246V20.7392H16.165V20.6987H16.0841V20.6582H16.0031V20.6177H15.8817V20.5772H15.7603V20.5367H15.6793V20.4962H15.5579V20.4557H15.3555V20.4152H15.1936V20.3747H14.9508V20.3342H14.5865V20.2937H14.546V20.3342H13.8174V20.3747H13.5746V20.4152H13.3722V20.4557H13.2508V20.4962H13.1293V20.5367H12.9674V20.5772H12.846V20.6177H12.765V20.6582H12.6841V20.6987H12.6031V20.7392H12.4817V20.7797H12.4008V20.8203H12.3198V20.8608H12.2389V20.9013H12.1579V20.9418H12.1174V20.9823H12.0365V21.0228H11.996V21.0633H11.915V21.1038H11.8746V21.1443H11.7936V21.1848H11.7531V21.2253H11.7127V21.2658H11.6317V21.3063H11.5912V21.3468H11.5103V21.3873H11.4698V21.4278H11.4293V21.4684H11.3889V21.5089H11.3484V21.5494H11.3079V21.5899H11.2269V21.6304H11.1865V21.6709H11.146V21.7114H11.1055V21.7519H11.065V21.7924H11.0246V21.8329H10.9841V21.8734H10.9436V21.9139H10.9031V21.9544H10.8627V21.9949H10.8222V22.0354H10.7817V22.0759H10.7412V22.1165H10.7008V22.157H10.6603V22.1975H10.6198V22.2785H10.5793V22.319H10.5389V22.3595H10.4984V22.4H10.4579V22.4405H10.4174V22.5215H10.377V22.562H10.3365V22.6025H10.296V22.643H10.2555V22.6835H10.215V22.7241H10.1746V22.8051H10.1341V22.8456H10.0936V22.9266H10.0531V22.9671H10.0127V23.0481H9.97219V23.0886H9.93171V23.1696H9.89124V23.2101H9.85076V23.2911H9.81028V23.3316H9.76981V23.4127H9.72933V23.4532H9.68886V23.5342H9.64838V23.5747H9.6079V23.6557H9.56743V23.6962H9.52695V23.7772H9.48648V23.8582H9.446V23.9392H9.40552V24.0203H9.36505V24.1013H9.32457V24.1823H9.28409V24.2633H9.24362V24.3038H9.20314V24.3848H9.16267V24.4658H9.12219V24.5468H9.08171V24.6278H9.04124V24.7089H9.00076V24.7899H8.96029V24.8709H8.91981V24.9519H8.87933V25.0329H8.83886V25.1544H8.79838V25.2354H8.75791V25.3165H8.71743V25.438H8.67695V25.519H8.63648V25.6H8.596V25.7215H8.55552V25.8025H8.51505V25.8835H8.47457V26.0051H8.4341V26.0861H8.39362V26.2076H8.35314V26.3291H8.31267V26.4506H8.27219V26.5722H8.23172V26.7342H8.19124V26.8557H8.15076V26.9772H8.11029V27.1392H8.06981V27.4228H8.02933V27.7063H7.98886V28.0304H7.94838V28.0709H7.98886V28.881H8.02933V29.043H8.06981V29.2051H8.11029V29.4076H8.15076V29.5696H8.19124V29.6506H8.23172V29.7316H8.27219V29.8532H8.31267V29.9342H8.35314V30.0152H8.39362V30.0962H8.4341V30.1772H8.47457V30.2582H8.51505V30.2987H8.55552V30.3797H8.596V30.4203H8.63648V30.5013H8.67695V30.5418H8.71743V30.5823H8.75791V30.6633H8.79838V30.7038H8.83886V30.7443H8.87933V30.8253H8.96029V30.8658H9.00076V30.9063H9.04124V30.9468H9.08171V30.9873H9.12219V31.0278H9.16267V31.0684H9.20314V31.1089H9.24362V31.1494H9.28409V31.1899H9.32457V31.2304H9.36505V31.2709H9.446V31.3114H9.48648V31.3519H9.56743V31.3924H9.6079V31.4329H9.68886V31.4734H9.72933V31.5139H9.81028V31.5544H9.85076V31.5949H9.93171V31.6354H10.0127V31.6759H10.0936V31.7165H10.1746V31.757H10.296V31.7975H10.4174V31.838H10.5389V31.8785H10.7412V31.919H10.9841V31.9595H11.3889V32H12.0365V31.9595H12.5222V31.919H12.8055V31.8785H13.0484V31.838H13.2508V31.7975H13.4531V31.757H13.615V31.7165H13.7769V31.6759H13.9389V31.6354H14.0603V31.5949H14.1817V31.5544H14.3436V31.5139H14.465V31.4734H14.5865V31.4329H14.7079V31.3924H14.8293V31.3519H14.9103V31.3114H15.0317V31.2709H15.1531V31.2304H15.2341V31.1899H15.3555V31.1494H15.4365V31.1089H15.5579V31.0684H15.6388V31.0278H15.7603V30.9873H15.8412V30.9468H15.9222V30.9063H16.0031V30.8658H16.1246V30.8253H16.2055V30.7848H16.2865V30.7443H16.3674V30.7038H16.4484V30.6633H16.5293V30.6228H16.6103V30.5823H16.7317V30.5418H16.8127V30.5013H16.8936V30.4608H16.9746V30.4203H17.0555V30.3797H17.096V30.3392H17.1769V30.2987H17.2579V30.2582H17.3388V30.2177H17.4198V30.1772H17.5008V30.1367H17.5817V30.0962H17.6627V30.0557H17.7031V30.0152H17.7841V29.9747H17.865V29.9342H17.946V29.8937H18.0269V29.8532H18.0674V29.8127H18.1484V29.7722H18.2293V29.7316H18.3103V29.6911H18.3508V29.6506H18.4317V29.6101H18.5127V29.5696H18.5531V29.5291H18.6341V29.4886H18.715V29.4481H18.7555V29.4076H18.8365V29.3671H18.9174V29.3266H18.9579V29.2861H19.0388V29.2456H19.0793V29.2051H19.1603V29.1646H19.2412V29.1241H19.2817V29.0835H19.3627V29.043H19.4031V29.0025H19.4841V28.962H19.565V28.9215H19.6055V28.881H19.6865V28.8405H19.7269V28.8H19.8079V28.7595H19.8484V28.719H19.9293V28.6785H19.9698V28.638H20.0507V28.5975H20.0912V28.557H20.1722V28.5165H20.2127V28.4759H20.2936V28.4354H20.3341V28.3949H20.415V28.3544H20.4555V28.3139H20.496V28.2734H20.5769V28.2329H20.6174V28.1924H20.6984V28.1519H20.7388V28.1114H20.8198V28.0709H20.8603V28.0304H20.9412V27.9899H20.9817V27.9494H21.0222V27.9089H21.1031V27.8684H21.1436V27.8278H21.1841V27.7873H21.265V27.7468H21.3055V27.7063H21.3865V27.6658H21.4269V27.6253H21.4674V27.5848H21.5484V27.5443H21.5888V27.5038H21.6293V27.4633H21.7103V27.4228H21.7507V27.3823H21.8317V27.3418H21.8722V27.3013H21.9127V27.2608H21.9936V27.2203H22.0341V27.1797H22.0746V27.1392H22.1555V27.0987H22.196V27.0582H22.2365V27.0177H22.2769V26.9772H22.3579V26.9367H22.3984V26.8962H22.4388V26.8557H22.5198V26.8152H22.5603V26.7747H22.6007V26.7342H22.6817V26.6937H22.7222V26.6532H22.7627V26.6127H22.8031V26.5722H22.8841V26.5316H22.9246V26.4911H22.965V26.4506H23.046V26.4101H23.0865V26.3696H23.1269V26.3291H23.1674V26.2886H23.2484V26.2481H23.2888V26.2076H23.3293V26.1671H23.3698V26.1266H23.4507V26.0861H23.4912V26.0456H23.5317V26.0051H23.5722V25.9646H23.6531V25.9241H23.6936V25.8835H23.7341V25.843H23.7746V25.8025H23.815V25.762H23.896V25.7215H23.9365V25.681H23.9769V25.6405H24.0174V25.6H24.0984V25.5595H24.1388V25.519H24.1793V25.4785H24.2198V25.438H24.2603V25.3975H24.3412V25.357H24.3817V25.3165H24.4222V25.2759H24.4626V25.2354H24.5031V25.1949H24.5841V25.1544H24.6246V25.1139H24.665V25.0734H24.7055V25.0329H24.746V24.9924H24.7865V24.9519H24.8674V24.9114H24.9079V24.8709H24.9484V24.8304H24.9888V24.7899H25.0293V24.7494H25.0698V24.7089H25.1507V24.6684H25.1912V24.6278H25.2317V24.5873H25.2722V24.5468H25.3126V24.5063H25.3531V24.4658H25.3936V24.4253H25.4746V24.3848H25.515V24.3443H25.5555V24.3038H25.596V24.2633H25.6365V24.2228H25.6769V24.1823H25.7174V24.1418H25.7579V24.1013H25.7984V24.0608H25.8793V24.0203H25.9198V23.9797H25.9603V23.9392H26.0007V23.8987H26.0412V23.8582H26.0817V23.8177H26.1222V23.7772H26.1626V23.7367H26.2031V23.6962H26.2436V23.6557H26.2841V23.6152H26.3246V23.5747H26.365V23.5342H26.4055V23.4937H26.446V23.4532H26.4865V23.4127H26.5269V23.3722H26.5674V23.3316H26.6079V23.2911H26.6484V23.2506H26.6888V23.2101H26.7293V23.1696H26.7698V23.1291H26.8103V23.0886H26.8507V23.0481H26.8912V23.0076H26.9317V22.9671H26.9722V22.9266H27.0126V22.8861H27.0531V22.8456H27.0936V22.8051H27.1341V22.7646H27.1746V22.7241H27.215V22.6835H27.2555V22.643H27.296V22.6025H27.3365V22.5215H27.3769V22.481H27.4174V22.4405H27.4579V22.4H27.4984V22.3595H27.5388V22.319H27.5793V22.2785H27.6198V22.238H27.6603V22.1975H27.7007V22.157H27.7412V22.0759H27.7817V22.0354H27.8222V21.9949H27.8626V21.9544H27.9031V21.9139H27.9436V21.8734H27.9841V21.7924H28.0245V21.7519H28.065V21.7114H28.1055V21.6709H28.146V21.6304H28.1865V21.5899H28.2269V21.5089H28.2674V21.4684H28.3079V21.4278H28.3484V21.3873H28.3888V21.3468H28.4293V21.2658H28.4698V21.2253H28.5103V21.1848H28.5507V21.1038H28.5912V21.0633H28.6317V21.0228H28.6722V20.9823H28.7126V20.9013H28.7531V20.8608H28.7936V20.8203H28.8341V20.7797H28.8745V20.6987H28.915V20.6582H28.9555V20.6177H28.996V20.5367H29.0365V20.4962H29.0769V20.4557H29.1174V20.3747H29.1579V20.3342H29.1984V20.2937H29.2388V20.2127H29.2793V20.1722H29.3198V20.0911H29.3603V20.0506H29.4007V20.0101H29.4412V19.9291H29.4817V19.8886H29.5222V19.8076H29.5626V19.7671H29.6031V19.7266H29.6436V19.6456H29.6841V19.6051H29.7245V19.5241H29.765V19.4835H29.8055V19.4025H29.846V19.362H29.8865V19.281H29.9269V19.2405H29.9674V19.1595H30.0079V19.119H30.0484V19.038H30.0888V18.9975H30.1293V18.9165H30.1698V18.8354H30.2103V18.7949H30.2507V18.7139H30.2912V18.6734H30.3317V18.5924H30.3722V18.5114H30.4126V18.4709H30.4531V18.3899H30.4936V18.3089H30.5341V18.2684H30.5745V18.1873H30.615V18.1063H30.6555V18.0658H30.696V17.9848H30.7365V17.9038H30.7769V17.8228H30.8174V17.7823H30.8579V17.7013H30.8984V17.6203H30.9388V17.5392H30.9793V17.4582H31.0198V17.3772H31.0603V17.2962H31.1007V17.2557H31.1412V17.1747H31.1817V17.0937H31.2222V17.0127H31.2626V16.9316H31.3031V16.8506H31.3436V16.7696H31.3841V16.6886H31.4245V16.6076H31.465V16.5266H31.5055V16.4051H31.546V16.3241H31.5864V16.243H31.6269V16.162H31.6674V16.081H31.7079V16H31.7484V15.919H31.7888V15.7975H31.8293V15.7165H31.8698V15.5949H31.9103V15.5139H31.9507V15.3924H31.9912V15.3114H32.0317V15.1899H32.0722V15.1089H32.1126V14.9873H32.1531V14.9063H32.1936V14.7848H32.2341V14.6633H32.2745V14.5418H32.315V14.4203H32.3555V14.2987H32.396V14.1772H32.4364V14.0557H32.4769V13.9342H32.5174V13.8127H32.5579V13.6506H32.5984V13.4886H32.6388V13.3671H32.6793V13.2051H32.7198V13.043H32.7603V12.881H32.8007V12.6785H32.8412V12.4759H32.8817V12.2734H32.9222V12.0709H32.9626V11.8278H33.0031V11.5038H33.0436V11.1797H33.0841V10.6532H33.1245V9.39747H33.0841V8.62785H33.0436V8.3038H33.0031V8.06076H32.9626V7.81772H32.9222V7.57468H32.8817V7.33165H32.8412V7.12911H32.8007V7.00759H32.7603V6.88608H32.7198V6.72405H32.6793V6.60253H32.6388V6.48101H32.5984V6.31899H32.5579V6.19747H32.5174V6.07595H32.4769V5.95443H32.4364V5.87342H32.396V5.79241H32.3555V5.67089H32.315V5.58987H32.2745V5.50886H32.2341V5.42785H32.1936V5.30633H32.1531V5.22532H32.1126V5.1443H32.0722V5.06329H32.0317V4.98228H31.9912V4.90127H31.9507V4.82025H31.9103V4.77975H31.8698V4.69873H31.8293V4.65823H31.7888V4.57722H31.7484V4.4962H31.7079V4.4557H31.6674V4.37468H31.6269V4.29367H31.5864V4.25316H31.546V4.17215H31.5055V4.13165H31.465V4.05063H31.4245V4.01013H31.3841V3.96962H31.3436V3.88861H31.3031V3.8481H31.2626V3.80759H31.2222V3.76709H31.1817V3.68608H31.1412V3.64557H31.1007V3.60506H31.0603V3.56456H31.0198V3.48354H30.9793V3.44304H30.9388V3.40253H30.8984V3.36203H30.8579V3.32152H30.8174V3.24051H30.7769V3.2H30.7365V3.15949H30.696V3.11899H30.6555V3.07848H30.615V3.03797H30.5745V2.99747H30.4936V2.95696H30.4531V2.91646H30.4126V2.87595H30.3722V2.83544H30.3317V2.79494H30.2912V2.75443H30.2507V2.71392H30.2103V2.67342H30.1698V2.63291H30.1293V2.59241H30.0888V2.5519H30.0484V2.51139H30.0079V2.47089H29.9269V2.43038H29.8865V2.38987H29.846V2.34937H29.765V2.30886H29.7245V2.26835H29.6841V2.22785H29.6031V2.18734H29.5626V2.14684H29.5222V2.10633H29.4412V2.06582H29.4007V2.02532H29.3603V1.98481H29.3198V1.9443H29.2388V1.9038H29.1579V1.86329H29.1174V1.82278H29.0365V1.78228H28.9555V1.74177H28.915V1.70127H28.8341V1.66076H28.7936V1.62025H28.7126V1.57975H28.6317V1.53924H28.5912V1.49873H28.5103V1.45823H28.4293V1.41772H28.3484V1.37722H28.2674V1.33671H28.1865V1.2962H28.1055V1.2557H28.0245V1.21519H27.9436V1.17468H27.8626V1.13418H27.7817V1.09367H27.7007V1.05316H27.6198V1.01266H27.4984V0.972152H27.4174V0.931646H27.296V0.891139H27.215V0.850633H27.0936V0.810127H26.9722V0.76962H26.8912V0.729114H26.7698V0.688608H26.6484V0.648101H26.5269V0.607595H26.4055V0.567089H26.2436V0.526582H26.1222V0.486076H26.0007V0.44557H25.8388V0.405063H25.6769V0.364557H25.515V0.324051H25.3126V0.283544H25.1507V0.243038H24.9484V0.202532H24.7055V0.162025H24.4626V0.121519H24.2198V0.0810127H23.8555V0.0405063H23.4912V0H21.5079Z" fill="#111111"/>
<path d="M11.5911 29.0835V29.1645H11.6315V29.0835H11.5911ZM11.5506 29.1645V29.2455H11.5911V29.1645H11.5506ZM11.5101 29.2455V29.3265H11.5506V29.2455H11.5101ZM11.4696 29.367V29.4481H11.5101V29.367H11.4696ZM11.4291 29.4886V29.5696H11.4696V29.4886H11.4291ZM11.3887 29.6911V29.7721H11.4291V29.6911H11.3887Z" fill="#111111"/>
<path d="M11.6318 29.0024V29.0835H11.6723V29.0024H11.6318Z" fill="#111111"/>
<path d="M11.915 28.4761V28.5571H11.9555V28.4761H11.915Z" fill="#111111"/>
<path d="M11.9152 28.5164V28.5569H11.8747V28.5974H11.8342V28.6784H11.7937V28.7594H11.7533V28.7999H11.7128V28.8809H11.6723V28.9619H11.6318V29.0429H11.6723V29.0024H11.7128V28.9214H11.7533V28.8404H11.7937V28.7999H11.8342V28.7189H11.8747V28.6379H11.9152V28.5974H11.9556V28.5164H11.9152Z" fill="#111111"/>
<path d="M11.5908 29.043V29.124H11.6313V29.0835H11.6718V29.043H11.5908Z" fill="#111111"/>
</g>
<defs>
<clipPath id="clip0_843_7315">
<rect width="96.2667" height="32" fill="white" transform="translate(0.338867)"/>
</clipPath>
</defs>
</svg>
