<svg width="24" height="24" viewBox="0 0 24 24" fill="none" xmlns="http://www.w3.org/2000/svg">
<path d="M11.9906 1.78858C6.19453 1.78623 1.5 6.47842 1.5 12.2698C1.5 16.8495 4.43672 20.7425 8.52656 22.1722C9.07734 22.3105 8.99297 21.919 8.99297 21.6519V19.8355C5.8125 20.2081 5.68359 18.1034 5.47031 17.7519C5.03906 17.0159 4.01953 16.8284 4.32422 16.4769C5.04844 16.1042 5.78672 16.5706 6.64219 17.8339C7.26094 18.7503 8.46797 18.5956 9.07969 18.4433C9.21328 17.8925 9.49922 17.4003 9.89297 17.0183C6.59766 16.4276 5.22422 14.4167 5.22422 12.0261C5.22422 10.8659 5.60625 9.79951 6.35625 8.93936C5.87812 7.52139 6.40078 6.30733 6.47109 6.12686C7.83281 6.00498 9.24844 7.10186 9.35859 7.18858C10.132 6.97998 11.0156 6.86983 12.0047 6.86983C12.9984 6.86983 13.8844 6.98467 14.6648 7.19561C14.9297 6.99404 16.2422 6.05186 17.5078 6.1667C17.5758 6.34717 18.0867 7.53311 17.6367 8.93233C18.3961 9.79483 18.7828 10.8706 18.7828 12.0331C18.7828 14.4284 17.4 16.4417 14.0953 17.023C14.3784 17.3013 14.6031 17.6333 14.7564 17.9995C14.9098 18.3657 14.9886 18.7588 14.9883 19.1558V21.7925C15.007 22.0034 14.9883 22.212 15.3398 22.212C19.4906 20.8128 22.4789 16.8917 22.4789 12.2722C22.4789 6.47842 17.782 1.78858 11.9906 1.78858V1.78858Z" fill="black"/>
</svg>
