<svg width="658" height="561" viewBox="0 0 658 561" fill="none" xmlns="http://www.w3.org/2000/svg">
<path d="M532.24 117.837C588.122 183.144 624.405 268.414 608.436 343.523C592.474 418.262 524.259 482.848 443.347 522.038C362.435 561.587 269.184 575.735 202.784 541.266C136.749 506.434 97.9222 422.256 78.33 334.449C58.7378 246.643 58.0157 154.842 102.28 92.0717C146.909 29.3014 236.53 -4.08066 318.893 1.36371C401.255 7.17228 476.365 52.5231 532.24 117.837Z" fill="#F0392D" fill-opacity="0.08"/>
<path d="M130.538 98.2446L548.467 100.009C562.583 100.009 566.451 101.491 566.451 115.608L574.025 136.154V444.731C574.025 458.847 562.583 470.289 548.467 470.289H130.538C116.422 470.289 104.98 458.847 104.98 444.731V136.154L111.869 115.608C111.869 101.491 116.422 98.2446 130.538 98.2446Z" fill="white"/>
<path d="M130.538 90.0498H548.467C562.583 90.0498 574.024 101.491 574.024 115.608V136.154H104.98V115.608C104.98 101.491 116.422 90.0498 130.538 90.0498Z" fill="#551AFE"/>
<path d="M141.012 121.642C145.414 121.642 148.98 118.069 148.98 113.674C148.98 109.272 145.414 105.705 141.012 105.705C136.616 105.705 133.043 109.272 133.043 113.674C133.043 118.069 136.616 121.642 141.012 121.642Z" fill="white"/>
<path d="M166.916 121.642C171.312 121.642 174.885 118.069 174.885 113.674C174.885 109.272 171.312 105.705 166.916 105.705C162.514 105.705 158.947 109.272 158.947 113.674C158.947 118.069 162.514 121.642 166.916 121.642Z" fill="white"/>
<path d="M192.812 121.642C197.214 121.642 200.781 118.069 200.781 113.674C200.781 109.272 197.214 105.705 192.812 105.705C188.411 105.705 184.844 109.272 184.844 113.674C184.844 118.069 188.411 121.642 192.812 121.642Z" fill="white"/>
<path d="M280.645 113.498H398.417" stroke="white" stroke-width="4" stroke-linecap="round" stroke-linejoin="round"/>
<path d="M171.051 201.722L195.403 211.305L177.538 193.345L195.164 179.606L172.25 184.46L176.577 159.285L163.767 181.27L151.528 168.365L156.884 186.488L133.7 188.152L156.25 195.606L145.179 212.73L161.971 201.389L166.963 223.707L171.051 201.722Z" fill="#F0392D"/>
<path d="M609.055 498.999L580.301 482.226L612.32 485.925L612.201 457.485L625.363 484.248L647.115 460.129L635.228 490.189L657.759 492.274L635.448 501.178L652.001 525.637L626.795 508.99L618.424 533.511L616.49 507.803L590.292 520.381L609.055 498.999Z" fill="#551AFE"/>
<path d="M549.365 178.817C586.496 183.822 620.644 157.775 625.649 120.644C630.648 83.5189 604.6 49.3645 567.475 44.366C530.345 39.3675 496.196 65.4088 491.192 102.54C486.193 139.664 512.241 173.819 549.365 178.817Z" fill="#F0392D"/>
<path d="M572.857 81.1892L568.135 116.26C567.375 121.887 562.239 125.812 556.606 125.052C550.979 124.292 547.061 119.155 547.821 113.523L552.543 78.4576C553.297 72.8248 558.439 68.9064 564.066 69.6662C569.705 70.357 573.617 75.5627 572.857 81.1892Z" fill="white"/>
<path d="M552.775 153.517C558.383 154.277 563.545 150.34 564.298 144.732C565.058 139.118 561.121 133.956 555.513 133.203C549.899 132.449 544.738 136.38 543.984 141.994C543.231 147.602 547.162 152.763 552.775 153.517Z" fill="white"/>
<path d="M379.201 201.916L293.935 205.313C274.517 206.059 259.341 222.396 260.176 241.91L263.576 327.188C264.331 346.592 280.667 361.769 300.182 360.933L385.448 357.536C404.866 356.79 420.032 340.455 419.207 320.938L415.796 235.663C414.954 216.335 398.617 201.159 379.201 201.916Z" fill="#F0392D"/>
<path d="M355.675 259.734L378.967 281.274Z" fill="#F0392D"/>
<path d="M355.675 259.734L378.967 281.274" stroke="#FFFEFC" stroke-width="7.21053" stroke-linecap="round" stroke-linejoin="round"/>
<path d="M378.095 258.851L356.557 282.154Z" fill="#F0392D"/>
<path d="M378.095 258.851L356.557 282.154" stroke="#FFFEFC" stroke-width="7.21053" stroke-linecap="round" stroke-linejoin="round"/>
<path d="M298.638 261.97L321.932 283.521Z" fill="#F0392D"/>
<path d="M298.638 261.97L321.932 283.521" stroke="#FFFEFC" stroke-width="7.21053" stroke-linecap="round" stroke-linejoin="round"/>
<path d="M321.061 261.098L299.413 284.482Z" fill="#F0392D"/>
<path d="M321.061 261.098L299.413 284.482" stroke="#FFFEFC" stroke-width="7.21053" stroke-linecap="round" stroke-linejoin="round"/>
<path d="M350.085 308.534L330.292 309.255Z" fill="#F0392D"/>
<path d="M350.085 308.534L330.292 309.255" stroke="#FFFEFC" stroke-width="7.21053" stroke-linecap="round" stroke-linejoin="round"/>
<path d="M156.959 515.839L148.07 465.311L92.5205 465.305L99.7413 506.251C100.205 508.949 101.608 511.388 103.698 513.153C105.794 514.911 108.443 515.857 111.184 515.839H156.959Z" fill="#F0392D"/>
<path opacity="0.3" d="M151.924 487.431L148.016 465.311L92.4658 465.305L98.8916 501.849L151.924 487.431Z" fill="#1D0C09"/>
<path d="M205.186 484.36C207.98 484.439 210.751 483.897 213.298 482.77C215.851 481.644 218.122 479.952 219.947 477.844C221.759 475.616 223.048 473.008 223.723 470.214C224.397 467.426 224.439 464.511 223.855 461.692L205.33 356.651C203.12 344.149 191.16 333.995 178.676 333.995H19.3194C16.5311 333.917 13.7547 334.459 11.2073 335.585C8.65385 336.711 6.38345 338.385 4.55869 340.505C2.752 342.74 1.45719 345.341 0.782694 348.136C0.108195 350.93 0.0660566 353.833 0.650221 356.651L19.1809 461.704C21.3971 474.201 33.3574 484.36 45.8296 484.36H205.186Z" fill="#F0392D"/>
<path d="M207.584 440.361L193.052 357.994C192.432 354.917 190.787 352.122 188.391 350.093C185.994 348.051 182.983 346.877 179.845 346.756H22.6325C21.2413 346.714 19.8622 346.991 18.5915 347.551C17.3268 348.117 16.2006 348.955 15.2913 350.002C14.3879 351.105 13.7556 352.399 13.4184 353.79C13.0871 355.17 13.063 356.603 13.3521 358.006L27.902 440.361H207.584Z" fill="#F7E8E5"/>
<path d="M123.295 471.617C124.463 471.665 125.637 471.443 126.715 470.967C127.787 470.503 128.751 469.799 129.522 468.913C130.281 468.028 130.847 466.98 131.154 465.842C131.473 464.71 131.521 463.523 131.31 462.367C130.871 459.615 129.48 457.11 127.39 455.267C125.306 453.424 122.644 452.364 119.85 452.262C118.724 452.244 117.598 452.454 116.55 452.882C115.502 453.321 114.562 453.978 113.78 454.803C110.473 458.404 111.292 464.529 115.598 468.474C117.688 470.425 120.422 471.551 123.295 471.617Z" fill="#1D0C09"/>
<path d="M151.558 484.439H96.0264" stroke="#1D0C09" stroke-width="4" stroke-linecap="round" stroke-linejoin="round"/>
<path d="M155.303 506.763H99.7656" stroke="#1D0C09" stroke-width="4" stroke-linecap="round" stroke-linejoin="round"/>
<path d="M176.279 515.839L176.183 515.387C175.737 512.888 174.424 510.624 172.479 509.004C170.54 507.372 168.089 506.474 165.547 506.474H99.7656C100.229 509.1 101.596 511.479 103.644 513.189C105.686 514.9 108.269 515.839 110.931 515.839H176.279Z" fill="#F0392D"/>
<path d="M76.206 362.866H136.002C146.354 362.866 156.17 371.249 157.947 381.602L162.168 406.185C163.945 416.537 157.001 424.92 146.649 424.92H86.8535C76.5011 424.92 66.6847 416.537 64.9021 406.185L60.6865 381.602C58.9099 371.249 65.8537 362.866 76.206 362.866Z" fill="#551AFE"/>
<path d="M99.5363 407.311L81.8428 394.068L95.0075 380.897" fill="#551AFE"/>
<path d="M99.5363 407.311L81.8428 394.068L95.0075 380.897" stroke="white" stroke-width="4" stroke-linecap="round" stroke-linejoin="round"/>
<path d="M123.319 380.897L141.001 394.068L127.854 407.311" fill="#551AFE"/>
<path d="M123.319 380.897L141.001 394.068L127.854 407.311" stroke="white" stroke-width="4" stroke-linecap="round" stroke-linejoin="round"/>
<path d="M113.455 380.054L109.317 407.66Z" fill="#551AFE"/>
<path d="M113.455 380.054L109.317 407.66" stroke="white" stroke-width="4" stroke-linecap="round" stroke-linejoin="round"/>
</svg>
