<svg width="32" height="32" viewBox="0 0 32 32" fill="none" xmlns="http://www.w3.org/2000/svg">
<path d="M9.83331 22.3746L11.5 20.2919L6.13464 15.9999L11.5 11.7079L9.83331 9.62523L3.16664 14.9586C3.01043 15.0835 2.88433 15.2419 2.79767 15.4222C2.71101 15.6024 2.66602 15.7999 2.66602 15.9999C2.66602 16.1999 2.71101 16.3973 2.79767 16.5776C2.88433 16.7579 3.01043 16.9163 3.16664 17.0412L9.83331 22.3746ZM22.1666 9.62523L20.5 11.7079L25.8653 15.9999L20.5 20.2919L22.1666 22.3746L28.8333 17.0412C28.9895 16.9163 29.1156 16.7579 29.2023 16.5776C29.2889 16.3973 29.3339 16.1999 29.3339 15.9999C29.3339 15.7999 29.2889 15.6024 29.2023 15.4222C29.1156 15.2419 28.9895 15.0835 28.8333 14.9586L22.1666 9.62523ZM19.968 4.2879L14.6346 28.2879L12.0306 27.7092L17.364 3.70923L19.968 4.2879Z" fill="#F0392D"/>
</svg>
