<svg width="32" height="32" viewBox="0 0 32 32" fill="none" xmlns="http://www.w3.org/2000/svg">
<path d="M26.6665 4H5.33317C4.62593 4 3.94765 4.28095 3.44755 4.78105C2.94746 5.28115 2.6665 5.95942 2.6665 6.66667V12C2.6665 12.7072 2.94746 13.3855 3.44755 13.8856C3.94765 14.3857 4.62593 14.6667 5.33317 14.6667H26.6665C27.3737 14.6667 28.052 14.3857 28.5521 13.8856C29.0522 13.3855 29.3332 12.7072 29.3332 12V6.66667C29.3332 5.95942 29.0522 5.28115 28.5521 4.78105C28.052 4.28095 27.3737 4 26.6665 4ZM19.9998 10.6667H17.3332V8H19.9998V10.6667ZM25.3332 10.6667H22.6665V8H25.3332V10.6667ZM26.6665 17.3333H5.33317C4.62593 17.3333 3.94765 17.6143 3.44755 18.1144C2.94746 18.6145 2.6665 19.2928 2.6665 20V25.3333C2.6665 26.0406 2.94746 26.7189 3.44755 27.219C3.94765 27.719 4.62593 28 5.33317 28H26.6665C27.3737 28 28.052 27.719 28.5521 27.219C29.0522 26.7189 29.3332 26.0406 29.3332 25.3333V20C29.3332 19.2928 29.0522 18.6145 28.5521 18.1144C28.052 17.6143 27.3737 17.3333 26.6665 17.3333ZM19.9998 24H17.3332V21.3333H19.9998V24ZM25.3332 24H22.6665V21.3333H25.3332V24Z" fill="#F0392D"/>
</svg>
