<svg width="32" height="32" viewBox="0 0 32 32" fill="none" xmlns="http://www.w3.org/2000/svg">
<path d="M5.33333 14.6668H13.3333C13.687 14.6668 14.0261 14.5263 14.2761 14.2763C14.5262 14.0262 14.6667 13.6871 14.6667 13.3334V5.33344C14.6667 4.97982 14.5262 4.64068 14.2761 4.39063C14.0261 4.14058 13.687 4.00011 13.3333 4.00011H5.33333C4.97971 4.00011 4.64057 4.14058 4.39052 4.39063C4.14048 4.64068 4 4.97982 4 5.33344V13.3334C4 13.6871 4.14048 14.0262 4.39052 14.2763C4.64057 14.5263 4.97971 14.6668 5.33333 14.6668ZM5.33333 28.0001H13.3333C13.687 28.0001 14.0261 27.8596 14.2761 27.6096C14.5262 27.3595 14.6667 27.0204 14.6667 26.6668V18.6668C14.6667 18.3132 14.5262 17.974 14.2761 17.724C14.0261 17.4739 13.687 17.3334 13.3333 17.3334H5.33333C4.97971 17.3334 4.64057 17.4739 4.39052 17.724C4.14048 17.974 4 18.3132 4 18.6668V26.6668C4 27.0204 4.14048 27.3595 4.39052 27.6096C4.64057 27.8596 4.97971 28.0001 5.33333 28.0001ZM18.6667 28.0001H26.6667C27.0203 28.0001 27.3594 27.8596 27.6095 27.6096C27.8595 27.3595 28 27.0204 28 26.6668V18.6668C28 18.3132 27.8595 17.974 27.6095 17.724C27.3594 17.4739 27.0203 17.3334 26.6667 17.3334H18.6667C18.313 17.3334 17.9739 17.4739 17.7239 17.724C17.4738 17.974 17.3333 18.3132 17.3333 18.6668V26.6668C17.3333 27.0204 17.4738 27.3595 17.7239 27.6096C17.9739 27.8596 18.313 28.0001 18.6667 28.0001ZM28.3907 8.39077L23.6093 3.60944C23.4856 3.48551 23.3387 3.3872 23.1769 3.32012C23.0152 3.25303 22.8418 3.21851 22.6667 3.21851C22.4916 3.21851 22.3182 3.25303 22.1564 3.32012C21.9947 3.3872 21.8477 3.48551 21.724 3.60944L16.9427 8.39077C16.8187 8.51449 16.7204 8.66143 16.6533 8.82318C16.5863 8.98494 16.5517 9.15833 16.5517 9.33344C16.5517 9.50855 16.5863 9.68195 16.6533 9.8437C16.7204 10.0055 16.8187 10.1524 16.9427 10.2761L21.724 15.0574C21.8477 15.1814 21.9947 15.2797 22.1564 15.3468C22.3182 15.4138 22.4916 15.4484 22.6667 15.4484C22.8418 15.4484 23.0152 15.4138 23.1769 15.3468C23.3387 15.2797 23.4856 15.1814 23.6093 15.0574L28.3907 10.2761C28.5146 10.1524 28.6129 10.0055 28.68 9.8437C28.7471 9.68195 28.7816 9.50855 28.7816 9.33344C28.7816 9.15833 28.7471 8.98494 28.68 8.82318C28.6129 8.66143 28.5146 8.51449 28.3907 8.39077V8.39077Z" fill="#F0392D"/>
</svg>
