<svg width="587" height="587" viewBox="0 0 587 587" fill="none" xmlns="http://www.w3.org/2000/svg">
<path d="M10.8011 369.502C-30.9983 213.505 61.9279 52.6001 217.925 10.8007C275.902 -4.73401 336.322 -2.26435 392.611 17.9758C397.876 19.8558 400.623 25.6662 398.711 30.9398C396.798 36.2133 391.02 38.9517 385.747 37.039C333.345 18.2428 277.135 15.9401 223.176 30.3984C77.9904 69.3008 -8.4711 219.056 30.4314 364.242C69.3338 509.428 219.089 595.89 364.275 556.987C509.461 518.085 595.923 368.329 557.02 223.143C553.345 209.425 548.573 195.93 542.877 183.033C540.643 177.961 542.912 171.926 548.041 169.642C553.17 167.357 559.148 169.677 561.432 174.806C567.563 188.671 572.671 203.161 576.618 217.892C618.417 373.89 525.524 534.786 369.527 576.585C213.529 618.384 52.6004 525.5 10.8011 369.502Z" fill="#F0392D"/>
</svg>
