<svg width="215" height="193" viewBox="0 0 215 193" fill="none" xmlns="http://www.w3.org/2000/svg">
<path fill-rule="evenodd" clip-rule="evenodd" d="M100.366 0.807317C132.589 1.0011 166.877 4.11648 187.992 28.4839C209.968 53.8461 215.263 90.3128 205.844 122.536C197.042 152.649 171.182 173.466 142.154 185.299C115.517 196.157 85.8588 194.932 60.2146 181.898C35.262 169.215 19.7357 145.497 11.297 118.786C1.6452 88.2365 -7.88843 52.9845 11.4101 27.422C31.0416 1.41848 67.8064 0.611511 100.366 0.807317Z" fill="#F0392D" fill-opacity="0.08"/>
<path d="M198.091 15.0106L188.24 9.2644L199.21 10.5316L199.169 0.788086L203.678 9.95713L211.131 1.69381L207.058 11.9923L214.777 12.7066L207.133 15.7572L212.804 24.1367L204.169 18.4334L201.301 26.8344L200.638 18.0268L191.663 22.336L198.091 15.0106Z" fill="#551AFE"/>
<path d="M14.8706 180.964L5.01953 175.218L15.9893 176.485L15.9484 166.742L20.4576 175.911L27.9099 167.647L23.8374 177.946L31.5564 178.66L23.9127 181.711L29.5836 190.09L20.9481 184.387L18.0804 192.788L17.4178 183.98L8.44233 188.29L14.8706 180.964Z" fill="#F0392D"/>
<path d="M135.794 28.5038L69.9072 30.8107C54.9028 31.3148 43.1173 43.8794 43.6905 58.9588L45.9991 124.854C46.5101 139.848 59.0747 151.633 74.1541 151.06L140.041 148.753C155.045 148.249 166.822 135.686 166.257 120.605L163.94 54.7119C163.361 39.7766 150.796 27.9911 135.794 28.5038Z" fill="#F0392D"/>
<path d="M117.401 73.0845L135.316 89.8121Z" fill="#F0392D"/>
<path d="M117.401 73.0845L135.316 89.8121" stroke="#FFFEFC" stroke-width="10.3986" stroke-linecap="round" stroke-linejoin="round"/>
<path d="M134.726 72.4861L118 90.409Z" fill="#F0392D"/>
<path d="M134.726 72.4861L118 90.409" stroke="#FFFEFC" stroke-width="10.3986" stroke-linecap="round" stroke-linejoin="round"/>
<path d="M73.3291 74.5996L91.2452 91.3358Z" fill="#F0392D"/>
<path d="M73.3291 74.5996L91.2452 91.3358" stroke="#FFFEFC" stroke-width="10.3986" stroke-linecap="round" stroke-linejoin="round"/>
<path d="M90.6543 74.0102L73.8431 91.9953Z" fill="#F0392D"/>
<path d="M90.6543 74.0102L73.8431 91.9953" stroke="#FFFEFC" stroke-width="10.3986" stroke-linecap="round" stroke-linejoin="round"/>
<path d="M112.902 110.765L97.6074 111.249Z" fill="#F0392D"/>
<path d="M112.902 110.765L97.6074 111.249" stroke="#FFFEFC" stroke-width="10.3986" stroke-linecap="round" stroke-linejoin="round"/>
</svg>
