<svg width="32" height="32" viewBox="0 0 32 32" fill="none" xmlns="http://www.w3.org/2000/svg">
<path d="M25.3333 5.33344H19.76C19.487 4.55403 18.9785 3.87872 18.3049 3.40093C17.6313 2.92315 16.8258 2.6665 16 2.6665C15.1742 2.6665 14.3687 2.92315 13.6951 3.40093C13.0215 3.87872 12.513 4.55403 12.24 5.33344H6.66667C5.96007 5.33555 5.28302 5.61718 4.78338 6.11682C4.28374 6.61646 4.00211 7.29351 4 8.00011V26.6668C4.00211 27.3734 4.28374 28.0504 4.78338 28.5501C5.28302 29.0497 5.96007 29.3313 6.66667 29.3334H25.3333C26.0399 29.3313 26.717 29.0497 27.2166 28.5501C27.7163 28.0504 27.9979 27.3734 28 26.6668V8.00011C27.9979 7.29351 27.7163 6.61646 27.2166 6.11682C26.717 5.61718 26.0399 5.33555 25.3333 5.33344V5.33344ZM16 5.33344C16.2637 5.33344 16.5215 5.41164 16.7408 5.55815C16.96 5.70466 17.1309 5.91289 17.2318 6.15653C17.3328 6.40016 17.3592 6.66825 17.3077 6.92689C17.2563 7.18554 17.1293 7.42311 16.9428 7.60958C16.7563 7.79605 16.5188 7.92304 16.2601 7.97449C16.0015 8.02593 15.7334 7.99953 15.4898 7.89861C15.2461 7.7977 15.0379 7.6268 14.8914 7.40753C14.7449 7.18827 14.6667 6.93048 14.6667 6.66677C14.6677 6.31348 14.8085 5.97495 15.0584 5.72513C15.3082 5.47531 15.6467 5.3345 16 5.33344V5.33344ZM13.3333 12.0001L17.0533 15.7254L20.4133 12.3654L18.6667 10.6668H24V16.0001L22.2987 14.2521L17.056 19.4988L13.3333 15.7734L9.88533 19.2188L8 17.3334L13.3333 12.0001ZM25.3333 25.3334H6.66667V22.6668H25.3333V25.3334Z" fill="#F0392D"/>
</svg>
