<svg width="32" height="32" viewBox="0 0 32 32" fill="none" xmlns="http://www.w3.org/2000/svg">
<path d="M16 32C7.177 32 0 24.8216 0 15.9991C0 12.7202 0.984644 9.56693 2.84863 6.88287C3.02228 6.63165 3.36774 6.56884 3.61898 6.74433C3.87022 6.91982 3.93303 7.26341 3.75753 7.51463C2.02471 10.014 1.10842 12.9474 1.10842 15.9991C1.10842 24.2101 7.78848 30.8898 16 30.8898C24.2115 30.8898 30.8916 24.2101 30.8916 15.9991C30.8916 7.78803 24.2115 1.10835 16 1.10835C15.2241 1.10835 14.4445 1.16931 13.6834 1.28754C13.3841 1.33372 13.0978 1.12867 13.0498 0.825723C13.0017 0.522773 13.2086 0.240143 13.5116 0.192115C14.33 0.0646539 15.1668 0 16 0C24.823 0 32 7.17659 32 15.9991C32 24.8216 24.823 32 16 32Z" fill="#F0392D"/>
<path d="M16.1575 3.84424C9.44418 3.84424 4 9.28625 4 16.001C4 19.2762 5.2987 22.2484 7.40654 24.4337C7.64485 20.911 7.89609 16.2707 8.2009 14.8022C8.26371 14.4992 8.15287 14.1889 7.90163 13.9727L6.63434 12.8736C6.21129 12.5079 6.21129 11.913 6.63434 11.5454C7.05739 11.1797 7.74091 11.1797 8.16396 11.5454L9.15414 12.4044C9.52916 12.7295 10.124 12.7757 10.5507 12.5023C12.1967 11.4494 14.1328 10.8416 16.2074 10.8416C18.2579 10.8416 20.1755 11.4346 21.8086 12.4672C22.2353 12.7369 22.8265 12.6907 23.1996 12.3675L24.1455 11.5454C24.5685 11.1797 25.2521 11.1797 25.6751 11.5454C26.0982 11.9112 26.0982 12.506 25.6751 12.8736L24.4743 13.9155C24.2194 14.1371 24.1085 14.4549 24.1787 14.7634C24.5113 16.2098 24.853 20.6727 25.1578 24.1677C27.116 22.0101 28.3094 19.1451 28.3094 16.001C28.315 9.28625 22.8727 3.84424 16.1575 3.84424Z" fill="#F0392D"/>
<path d="M20.2758 15.0459C19.4704 15.0459 18.8164 15.6998 18.8164 16.5052C18.8164 17.3106 19.4704 17.9646 20.2758 17.9646C21.0813 17.9646 21.7352 17.3106 21.7352 16.5052C21.7352 15.698 21.0813 15.0459 20.2758 15.0459Z" fill="#F0392D"/>
<path d="M13.7657 15.8402C13.7657 15.6628 13.6973 15.4984 13.5772 15.3728L13.5588 15.3543C13.2909 15.0957 12.8605 15.105 12.6037 15.3673L12.4263 15.5446L12.2508 15.3691C12.1215 15.2361 11.9479 15.1641 11.7631 15.1641C11.5858 15.1641 11.4214 15.2324 11.2958 15.3525L11.2773 15.371C11.0186 15.6388 11.0279 16.0692 11.2902 16.326L11.4676 16.5033L11.2958 16.6751C10.9799 16.991 11.0574 17.3974 11.2958 17.6357C11.4232 17.7631 11.5987 17.8444 11.7816 17.8444C11.9423 17.8444 12.1086 17.7816 12.2545 17.6357L12.4263 17.4639L12.5981 17.6357C12.914 17.9516 13.3205 17.874 13.5588 17.6357C13.6862 17.5082 13.7675 17.3327 13.7675 17.1499C13.7675 16.9891 13.7066 16.8229 13.5588 16.677L13.387 16.5052L13.5625 16.3297C13.6936 16.1985 13.7675 16.0249 13.7657 15.8402Z" fill="#F0392D"/>
</svg>
