<svg width="32" height="32" viewBox="0 0 32 32" fill="none" xmlns="http://www.w3.org/2000/svg">
<path d="M20.618 4.07592C20.8007 4.00009 21.0017 3.98014 21.1958 4.01859C21.3898 4.05703 21.568 4.15216 21.708 4.29192L28.708 11.2919C28.8011 11.3848 28.875 11.4952 28.9254 11.6167C28.9758 11.7381 29.0018 11.8684 29.0018 11.9999C29.0018 12.1315 28.9758 12.2617 28.9254 12.3832C28.875 12.5047 28.8011 12.615 28.708 12.7079L21.708 19.7079C21.5681 19.8481 21.3898 19.9437 21.1956 19.9824C21.0014 20.0211 20.8 20.0013 20.6171 19.9255C20.4341 19.8497 20.2778 19.7212 20.168 19.5564C20.0581 19.3916 19.9996 19.198 20 18.9999V16.0059C18.826 16.0259 17.644 16.1059 16.4 16.4619C14.824 16.9119 13.096 17.8179 11.208 19.7079C11.0622 19.8547 10.8745 19.9526 10.6707 19.9881C10.4669 20.0237 10.2571 19.9952 10.0702 19.9066C9.88331 19.818 9.72848 19.6736 9.62708 19.4933C9.52567 19.313 9.48267 19.1057 9.504 18.8999C9.816 15.7799 10.74 13.0319 12.628 11.0599C14.36 9.24592 16.8 8.20192 20 8.02592V4.99992C20 4.80204 20.0588 4.60862 20.1688 4.44414C20.2788 4.27966 20.4351 4.15151 20.618 4.07592ZM6 10.9999C6 10.2043 6.31607 9.44121 6.87868 8.8786C7.44129 8.31599 8.20435 7.99992 9 7.99992H11C11.2652 7.99992 11.5196 7.89456 11.7071 7.70703C11.8946 7.51949 12 7.26514 12 6.99992C12 6.7347 11.8946 6.48035 11.7071 6.29281C11.5196 6.10528 11.2652 5.99992 11 5.99992H9C7.67392 5.99992 6.40215 6.5267 5.46447 7.46439C4.52678 8.40207 4 9.67384 4 10.9999V22.9999C4 24.326 4.52678 25.5978 5.46447 26.5355C6.40215 27.4731 7.67392 27.9999 9 27.9999H21C22.3261 27.9999 23.5979 27.4731 24.5355 26.5355C25.4732 25.5978 26 24.326 26 22.9999V20.9999C26 20.7347 25.8946 20.4803 25.7071 20.2928C25.5196 20.1053 25.2652 19.9999 25 19.9999C24.7348 19.9999 24.4804 20.1053 24.2929 20.2928C24.1054 20.4803 24 20.7347 24 20.9999V22.9999C24 23.7956 23.6839 24.5586 23.1213 25.1212C22.5587 25.6838 21.7956 25.9999 21 25.9999H9C8.20435 25.9999 7.44129 25.6838 6.87868 25.1212C6.31607 24.5586 6 23.7956 6 22.9999V10.9999Z" fill="#F0392D"/>
</svg>
