<svg width="32" height="32" viewBox="0 0 32 32" fill="none" xmlns="http://www.w3.org/2000/svg">
<path d="M14.68 4.0666C8.68 4.71993 4 9.81326 4 15.9999C4 19.1825 5.26428 22.2348 7.51472 24.4852C9.76516 26.7356 12.8174 27.9999 16 27.9999C22.1733 27.9999 27.2667 23.3333 27.9333 17.3333C28.0533 16.2799 26.8933 15.4399 25.88 16.0666C24.7916 16.7613 23.5364 17.1508 22.2459 17.1941C20.9553 17.2375 19.6768 16.9332 18.5442 16.313C17.4116 15.6929 16.4665 14.7797 15.8078 13.6691C15.1491 12.5585 14.801 11.2912 14.8 9.99993C14.8 8.5866 15.2133 7.25326 15.92 6.1466C16.52 5.25326 15.8667 3.97326 14.68 4.0666V4.0666Z" fill="#F0392D"/>
</svg>
