<svg width="224" height="193" viewBox="0 0 224 193" fill="none" xmlns="http://www.w3.org/2000/svg">
<path fill-rule="evenodd" clip-rule="evenodd" d="M108.991 0.807317C141.214 1.0011 175.502 4.11648 196.617 28.4839C218.593 53.8461 223.888 90.3128 214.469 122.536C205.667 152.649 179.807 173.466 150.779 185.299C124.142 196.157 94.4838 194.932 68.8396 181.898C43.887 169.215 28.3607 145.497 19.922 118.786C10.2702 88.2365 0.736567 52.9845 20.0351 27.422C39.6666 1.41848 76.4314 0.611511 108.991 0.807317Z" fill="#551AFE" fill-opacity="0.1"/>
<path d="M17.2847 15.0106L27.1357 9.2644L16.166 10.5316L16.2069 0.788086L11.6977 9.95713L4.24539 1.69381L8.3179 11.9923L0.598863 12.7066L8.2426 15.7572L2.57165 24.1367L11.2072 18.4334L14.0749 26.8344L14.7375 18.0268L23.7129 22.336L17.2847 15.0106Z" fill="#551AFE"/>
<path d="M213.55 180.964L223.401 175.218L212.432 176.485L212.473 166.742L207.963 175.911L200.511 167.647L204.584 177.946L196.864 178.66L204.508 181.711L198.837 190.09L207.473 184.387L210.341 192.788L211.003 183.98L219.979 188.29L213.55 180.964Z" fill="#F0392D"/>
<path d="M78.3864 161.447C76.9579 161.447 75.5878 160.881 74.5777 159.873C73.5675 158.865 73 157.498 73 156.072V37.8214C73.0002 36.8874 73.2442 35.9695 73.7081 35.1583C74.1721 34.347 74.8398 33.6704 75.6456 33.1952C76.4513 32.7199 77.3673 32.4623 78.3032 32.4479C79.2391 32.4335 80.1626 32.6627 80.9827 33.1129L188.712 92.2383C189.556 92.7023 190.26 93.384 190.751 94.2122C191.241 95.0404 191.5 95.9848 191.5 96.9468C191.5 97.9089 191.241 98.8533 190.751 99.6815C190.26 100.51 189.556 101.191 188.712 101.655L80.9827 160.781C80.1874 161.218 79.2943 161.447 78.3864 161.447Z" fill="#551AFE"/>
</svg>
