<svg width="148" height="32" viewBox="0 0 148 32" fill="none" xmlns="http://www.w3.org/2000/svg">
<path d="M46.6747 22.9263H42.8913L38.6411 10.775H40.9015L44.6366 22.0433H44.9312L48.6664 10.775H50.9267L46.6747 22.9263Z" fill="#252525"/>
<path d="M52.7924 21.1621H57.0667V12.5391H53.2333V10.775H58.9824V21.1621H62.9622V22.9262H52.7905V21.1621H52.7924ZM56.2811 7.15065C56.2811 6.67776 56.4497 6.27321 56.7851 5.93886C57.1204 5.6045 57.5262 5.4364 58.0005 5.4364C58.4748 5.4364 58.8805 5.6045 59.2159 5.93886C59.5512 6.27321 59.7198 6.67776 59.7198 7.15065C59.7198 7.6254 59.5512 8.0281 59.2159 8.36245C58.8805 8.69681 58.4748 8.86491 58.0005 8.86491C57.5243 8.86491 57.1204 8.69681 56.7851 8.36245C56.4479 8.0281 56.2811 7.62355 56.2811 7.15065Z" fill="#252525"/>
<path d="M74.9353 21.036H74.6407C74.4443 21.411 74.1942 21.738 73.8922 22.0151C73.5883 22.2922 73.2622 22.5212 72.9102 22.7004C72.5582 22.8796 72.1858 23.0144 71.793 23.105C71.4002 23.1955 71.0223 23.2398 70.6628 23.2398C69.8439 23.2398 69.0824 23.1013 68.3784 22.8242C67.6743 22.5471 67.0555 22.1462 66.5238 21.6235C65.992 21.1007 65.5733 20.4523 65.2713 19.6765C64.9675 18.9006 64.8174 18.0139 64.8174 17.0183V16.6266C64.8174 15.6476 64.973 14.7683 65.2843 13.9925C65.5955 13.2166 66.0124 12.5627 66.5367 12.0325C67.0611 11.5024 67.6743 11.0978 68.3802 10.8207C69.0843 10.5436 69.8291 10.4051 70.6165 10.4051C71.4521 10.4051 72.234 10.5898 72.9621 10.9556C73.6902 11.3232 74.2516 11.8903 74.6444 12.6587H74.939V5.75H76.8547V22.8981H74.939V21.036H74.9353ZM70.8574 21.4277C71.4299 21.4277 71.9635 21.3224 72.4544 21.1099C72.9454 20.8975 73.3753 20.5945 73.744 20.2029C74.1127 19.8113 74.4035 19.3421 74.6166 18.7953C74.8297 18.2485 74.9353 17.6408 74.9353 16.9702V16.6765C74.9353 16.0244 74.8278 15.4241 74.6166 14.8754C74.4035 14.3287 74.1127 13.8595 73.744 13.466C73.3753 13.0744 72.9417 12.7677 72.4415 12.5479C71.9412 12.3281 71.4132 12.2172 70.8574 12.2172C70.283 12.2172 69.7476 12.3244 69.2473 12.535C68.7471 12.7474 68.3135 13.0504 67.9448 13.442C67.5761 13.8336 67.289 14.2991 67.0852 14.8385C66.8795 15.3779 66.7776 15.9746 66.7776 16.6266V17.0183C66.7776 17.7036 66.8795 18.3169 67.0852 18.8563C67.289 19.3957 67.5761 19.8575 67.9448 20.2399C68.3135 20.6241 68.7434 20.9178 69.2344 21.121C69.7272 21.3261 70.2663 21.4277 70.8574 21.4277Z" fill="#252525"/>
<path d="M81.023 17.438C81.073 18.6461 81.4491 19.6178 82.1532 20.353C82.8572 21.0882 83.8392 21.4558 85.1009 21.4558C85.6734 21.4558 86.1736 21.3911 86.5998 21.26C87.0259 21.1288 87.389 20.9496 87.6929 20.7206C87.9949 20.4915 88.2413 20.2274 88.4303 19.9244C88.6193 19.6233 88.7693 19.3 88.8842 18.9564L90.7018 19.446C90.3572 20.5728 89.7235 21.4909 88.7971 22.2021C87.8708 22.9133 86.622 23.2679 85.0509 23.2679C84.1819 23.2679 83.3834 23.1165 82.6552 22.8154C81.9253 22.5143 81.299 22.0839 80.7747 21.5297C80.2504 20.9755 79.8409 20.3142 79.5463 19.5457C79.2517 18.7791 79.1035 17.9294 79.1035 16.9984V16.4109C79.1035 15.5612 79.2554 14.7706 79.5574 14.0354C79.8594 13.3002 80.2819 12.6684 80.8229 12.1364C81.3639 11.6062 81.9975 11.1887 82.7275 10.8876C83.4556 10.5865 84.2468 10.4351 85.099 10.4351C86.0977 10.4351 86.9629 10.6198 87.691 10.9855C88.4192 11.3531 89.0176 11.8057 89.4845 12.3451C89.9514 12.8845 90.296 13.4719 90.5165 14.1092C90.737 14.7466 90.8481 15.334 90.8481 15.8734V17.4417H81.023V17.438ZM85.1009 12.2454C84.5599 12.2454 84.0559 12.3303 83.589 12.5021C83.1221 12.6739 82.7127 12.9141 82.3607 13.2244C82.0086 13.5348 81.7215 13.8987 81.501 14.3143C81.2805 14.7299 81.136 15.1844 81.0711 15.6739H88.9342C88.9009 15.1511 88.7749 14.6782 88.5526 14.2533C88.3321 13.8285 88.0449 13.4701 87.6929 13.1764C87.3409 12.8827 86.9388 12.6536 86.4886 12.4911C86.0384 12.3266 85.577 12.2454 85.1009 12.2454Z" fill="#252525"/>
<path d="M105.173 16.9984C105.173 18.0107 105.005 18.9047 104.67 19.6806C104.334 20.4564 103.888 21.1104 103.33 21.6405C102.772 22.1707 102.122 22.5752 101.377 22.8523C100.632 23.1294 99.8579 23.268 99.0557 23.268C98.2368 23.268 97.4586 23.1294 96.7212 22.8523C95.9838 22.5752 95.3372 22.1707 94.7795 21.6405C94.2218 21.1104 93.7753 20.4564 93.44 19.6806C93.1046 18.9047 92.936 18.0107 92.936 16.9984V16.7047C92.936 15.709 93.1046 14.8223 93.44 14.0465C93.7753 13.2706 94.2256 12.613 94.7906 12.0736C95.3557 11.5342 96.006 11.1259 96.7434 10.8489C97.4808 10.5718 98.2497 10.4332 99.0538 10.4332C99.8561 10.4332 100.627 10.5718 101.362 10.8489C102.1 11.1259 102.75 11.5342 103.315 12.0736C103.88 12.613 104.33 13.2706 104.666 14.0465C105.001 14.8223 105.17 15.709 105.17 16.7047V16.9984H105.173ZM99.0575 21.4558C99.6467 21.4558 100.191 21.3542 100.692 21.1492C101.192 20.946 101.629 20.6467 102.005 20.2551C102.381 19.8635 102.676 19.3943 102.889 18.8475C103.102 18.3007 103.208 17.6837 103.208 16.9984V16.7047C103.208 16.0526 103.1 15.4522 102.889 14.9036C102.676 14.3568 102.381 13.8876 102.005 13.4941C101.629 13.1025 101.186 12.7959 100.679 12.576C100.171 12.3562 99.63 12.2454 99.0575 12.2454C98.4832 12.2454 97.944 12.3562 97.4364 12.576C96.9287 12.7959 96.4859 13.1025 96.1098 13.4941C95.7318 13.8857 95.4373 14.3568 95.226 14.9036C95.013 15.4504 94.9074 16.0507 94.9074 16.7047V16.9984C94.9074 17.6837 95.013 18.3007 95.226 18.8475C95.4391 19.3943 95.7337 19.8635 96.1098 20.2551C96.4859 20.6467 96.925 20.946 97.4234 21.1492C97.9218 21.3542 98.4665 21.4558 99.0575 21.4558Z" fill="#252525"/>
<path d="M109.696 22.9263H107.78V5.7782H109.696V12.6869H109.991C110.417 11.9517 111.006 11.3939 111.76 11.0096C112.514 10.6254 113.333 10.4333 114.217 10.4333C114.971 10.4333 115.682 10.5718 116.355 10.8489C117.026 11.126 117.62 11.5269 118.135 12.0496C118.65 12.5724 119.06 13.2171 119.364 13.9856C119.668 14.754 119.818 15.6259 119.818 16.6068V17.0963C119.818 18.092 119.669 18.975 119.375 19.7416C119.08 20.5101 118.674 21.1547 118.159 21.6775C117.643 22.2003 117.042 22.5956 116.353 22.8653C115.666 23.135 114.936 23.2699 114.167 23.2699C113.774 23.2699 113.372 23.2255 112.962 23.135C112.553 23.0445 112.164 22.9059 111.795 22.7194C111.427 22.531 111.086 22.3037 110.776 22.034C110.465 21.7643 110.202 21.4429 109.991 21.0661H109.696V22.9263V22.9263ZM113.774 21.4559C114.363 21.4559 114.904 21.3543 115.395 21.1492C115.886 20.946 116.316 20.656 116.685 20.2791C117.053 19.9042 117.341 19.446 117.544 18.9066C117.748 18.3672 117.852 17.7632 117.852 17.0945V16.605C117.852 15.951 117.75 15.3599 117.544 14.8297C117.339 14.2996 117.053 13.8415 116.685 13.4572C116.316 13.073 115.882 12.7756 115.382 12.5632C114.882 12.3507 114.346 12.2454 113.772 12.2454C113.198 12.2454 112.666 12.3563 112.175 12.5761C111.684 12.7959 111.254 13.1026 110.885 13.4942C110.517 13.8858 110.226 14.3569 110.013 14.9036C109.8 15.4504 109.694 16.0508 109.694 16.7047V16.9984C109.694 17.669 109.8 18.2767 110.013 18.8235C110.226 19.3703 110.517 19.8395 110.885 20.2311C111.254 20.6227 111.684 20.9257 112.175 21.1381C112.668 21.3506 113.2 21.4559 113.774 21.4559Z" fill="#252525"/>
<path d="M130.973 10.775H132.889V22.9263H130.973V20.7225H130.679C130.286 21.5057 129.769 22.1264 129.131 22.5845C128.492 23.0408 127.683 23.2699 126.699 23.2699C126.026 23.2699 125.409 23.159 124.844 22.9392C124.279 22.7194 123.796 22.3887 123.395 21.9472C122.993 21.5057 122.682 20.9589 122.462 20.3069C122.241 19.6529 122.13 18.8937 122.13 18.0292V10.775H124.046V17.7817C124.046 19.0563 124.307 19.9873 124.831 20.5747C125.356 21.1621 126.158 21.4558 127.24 21.4558C128.403 21.4558 129.317 21.0605 129.98 20.2681C130.643 19.4756 130.975 18.419 130.975 17.0963V10.775H130.973Z" fill="#252525"/>
<path d="M146.082 21.0642H145.788C145.395 21.7994 144.858 22.3499 144.178 22.7175C143.498 23.0851 142.757 23.268 141.954 23.268C141.135 23.268 140.365 23.1294 139.644 22.8523C138.923 22.5752 138.288 22.1744 137.739 21.6516C137.191 21.1288 136.757 20.4804 136.437 19.7046C136.118 18.9288 135.957 18.0421 135.957 17.0464V16.6548C135.957 15.6757 136.12 14.7964 136.448 14.0206C136.776 13.2448 137.209 12.5908 137.75 12.0607C138.292 11.5305 138.921 11.1259 139.642 10.8489C140.363 10.5718 141.117 10.4332 141.903 10.4332C142.786 10.4332 143.561 10.6253 144.224 11.0096C144.887 11.3938 145.408 11.9535 145.784 12.6869H146.079V10.775H147.994V25.9132C147.994 26.4674 147.818 26.9255 147.466 27.2857C147.114 27.6441 146.659 27.8251 146.103 27.8251H138.167V26.061H145.415C145.858 26.061 146.079 25.8153 146.079 25.3258V21.0642H146.082ZM142.004 21.4558C142.577 21.4558 143.111 21.3505 143.601 21.1381C144.092 20.9256 144.522 20.6227 144.891 20.2311C145.26 19.8394 145.551 19.3702 145.764 18.8235C145.977 18.2767 146.082 17.6689 146.082 16.9984V16.7047C146.082 16.0526 145.975 15.4522 145.764 14.9036C145.551 14.3568 145.26 13.8876 144.891 13.4941C144.522 13.1025 144.089 12.7959 143.589 12.576C143.088 12.3562 142.56 12.2454 142.004 12.2454C141.43 12.2454 140.895 12.3525 140.394 12.5631C139.894 12.7755 139.461 13.0785 139.092 13.4701C138.723 13.8617 138.436 14.3272 138.232 14.8666C138.027 15.406 137.925 16.0027 137.925 16.6548V17.0464C137.925 17.7317 138.027 18.345 138.232 18.8844C138.436 19.4238 138.723 19.8856 139.092 20.268C139.461 20.6522 139.89 20.946 140.381 21.1492C140.874 21.3542 141.415 21.4558 142.004 21.4558Z" fill="#252525"/>
<path d="M16.0467 32C7.19796 32 0 24.8216 0 15.9991C0 12.7202 0.987519 9.56693 2.85695 6.88287C3.03111 6.63165 3.37757 6.56884 3.62955 6.74433C3.88152 6.91982 3.94452 7.26341 3.76851 7.51463C2.03062 10.014 1.11165 12.9474 1.11165 15.9991C1.11165 24.2101 7.81122 30.8898 16.0467 30.8898C24.2822 30.8898 30.9818 24.2101 30.9818 15.9991C30.9818 7.78803 24.2822 1.10835 16.0467 1.10835C15.2686 1.10835 14.4867 1.16931 13.7234 1.28754C13.4232 1.33372 13.136 1.12867 13.0879 0.825723C13.0397 0.522773 13.2472 0.240143 13.5511 0.192115C14.3718 0.0646539 15.2111 0 16.0467 0C24.8955 0 32.0934 7.17659 32.0934 15.9991C32.0934 24.8216 24.8955 32 16.0467 32Z" fill="#252525"/>
<path d="M16.0468 3.84424C9.31383 3.84424 3.85376 9.28625 3.85376 16.001C3.85376 19.2762 5.15625 22.2484 7.27024 24.4337C7.50925 20.911 7.76122 16.2707 8.06693 14.8022C8.12992 14.4992 8.01876 14.1889 7.76678 13.9727L6.49579 12.8736C6.07151 12.5079 6.07151 11.913 6.49579 11.5454C6.92007 11.1797 7.60559 11.1797 8.02987 11.5454L9.02295 12.4044C9.39906 12.7295 9.99565 12.7757 10.4236 12.5023C12.0744 11.4494 14.0161 10.8416 16.0968 10.8416C18.1533 10.8416 20.0765 11.4346 21.7143 12.4672C22.1423 12.7369 22.7352 12.6907 23.1095 12.3675L24.0581 11.5454C24.4824 11.1797 25.1679 11.1797 25.5922 11.5454C26.0164 11.9112 26.0164 12.506 25.5922 12.8736L24.3879 13.9155C24.1322 14.1371 24.021 14.4549 24.0914 14.7634C24.4249 16.2098 24.7677 20.6727 25.0734 24.1677C27.0373 22.0101 28.2342 19.1451 28.2342 16.001C28.2397 9.28625 22.7815 3.84424 16.0468 3.84424Z" fill="#F0392D"/>
<path d="M20.1766 15.046C19.3688 15.046 18.7129 15.7 18.7129 16.5054C18.7129 17.3108 19.3688 17.9647 20.1766 17.9647C20.9844 17.9647 21.6402 17.3108 21.6402 16.5054C21.6402 15.6981 20.9844 15.046 20.1766 15.046Z" fill="#252525"/>
<path d="M13.6475 15.8403C13.6475 15.6629 13.579 15.4985 13.4585 15.3729L13.44 15.3545C13.1714 15.0958 12.7397 15.1051 12.4821 15.3674L12.3043 15.5447L12.1283 15.3692C11.9986 15.2362 11.8244 15.1642 11.6391 15.1642C11.4613 15.1642 11.2964 15.2325 11.1704 15.3526L11.1519 15.3711C10.8925 15.6389 10.9017 16.0693 11.1648 16.3261L11.3427 16.5034L11.1704 16.6752C10.8536 16.9911 10.9314 17.3975 11.1704 17.6358C11.2982 17.7633 11.4742 17.8445 11.6577 17.8445C11.8188 17.8445 11.9856 17.7817 12.132 17.6358L12.3043 17.464L12.4766 17.6358C12.7934 17.9517 13.201 17.8741 13.44 17.6358C13.5678 17.5083 13.6494 17.3329 13.6494 17.15C13.6494 16.9893 13.5882 16.823 13.44 16.6771L13.2677 16.5053L13.4437 16.3298C13.5753 16.1986 13.6494 16.025 13.6475 15.8403Z" fill="#252525"/>
</svg>
