<svg width="256" height="256" viewBox="0 0 256 256" fill="none" xmlns="http://www.w3.org/2000/svg">
<path d="M128 256C57.416 256 0 198.573 0 127.993C0 101.762 7.87715 76.5355 22.7891 55.063C24.1783 53.0532 26.9419 52.5507 28.9519 53.9546C30.9618 55.3585 31.4643 58.1073 30.0603 60.1171C16.1977 80.1118 8.86734 103.579 8.86734 127.993C8.86734 193.681 62.3078 247.118 128 247.118C193.692 247.118 247.133 193.681 247.133 127.993C247.133 62.3042 193.692 8.86682 128 8.86682C121.793 8.86682 115.556 9.3545 109.467 10.3003C107.073 10.6697 104.782 9.02938 104.398 6.60578C104.014 4.18219 105.669 1.92115 108.093 1.53692C114.64 0.517231 121.335 0 128 0C198.584 0 256 57.4127 256 127.993C256 198.573 198.584 256 128 256Z" fill="#F0392D"/>
<path d="M129.26 30.7539C75.5534 30.7539 32 74.29 32 128.008C32 154.21 42.3896 177.988 59.2523 195.47C61.1588 167.288 63.1687 130.166 65.6072 118.417C66.1097 115.994 65.223 113.511 63.213 111.782L53.0747 102.989C49.6903 100.063 49.6903 95.3044 53.0747 92.3636C56.4591 89.4375 61.9273 89.4375 65.3116 92.3636L73.2331 99.2354C76.2333 101.836 80.9921 102.206 84.406 100.019C97.574 91.5951 113.062 86.7331 129.659 86.7331C146.064 86.7331 161.404 91.4769 174.469 99.7378C177.883 101.895 182.612 101.526 185.597 98.9398L193.164 92.3636C196.548 89.4375 202.016 89.4375 205.401 92.3636C208.785 95.2896 208.785 100.048 205.401 102.989L195.795 111.324C193.755 113.097 192.868 115.639 193.43 118.107C196.09 129.678 198.824 165.382 201.263 193.342C216.928 176.081 226.476 153.16 226.476 128.008C226.52 74.29 182.981 30.7539 129.26 30.7539Z" fill="#F0392D"/>
<path d="M162.205 120.367C155.761 120.367 150.529 125.599 150.529 132.042C150.529 138.485 155.761 143.717 162.205 143.717C168.648 143.717 173.88 138.485 173.88 132.042C173.88 125.584 168.648 120.367 162.205 120.367Z" fill="#F0392D"/>
<path d="M110.123 126.721C110.123 125.303 109.577 123.987 108.616 122.982L108.468 122.835C106.325 120.766 102.882 120.84 100.828 122.938L99.4087 124.357L98.0047 122.953C96.9702 121.889 95.581 121.312 94.1031 121.312C92.6843 121.312 91.369 121.859 90.3641 122.82L90.2163 122.968C88.1472 125.11 88.2211 128.554 90.3197 130.608L91.7385 132.027L90.3641 133.401C87.8369 135.928 88.4576 139.179 90.3641 141.085C91.3838 142.105 92.7878 142.755 94.2509 142.755C95.5367 142.755 96.8668 142.253 98.0343 141.085L99.4087 139.711L100.783 141.085C103.31 143.613 106.562 142.992 108.468 141.085C109.488 140.066 110.138 138.662 110.138 137.199C110.138 135.913 109.65 134.583 108.468 133.416L107.094 132.041L108.498 130.637C109.547 129.588 110.138 128.199 110.123 126.721Z" fill="#F0392D"/>
</svg>
