<svg width="610" height="561" viewBox="0 0 610 561" fill="none" xmlns="http://www.w3.org/2000/svg">
<path fill-rule="evenodd" clip-rule="evenodd" d="M554.482 221.796C573.317 293.841 518.441 360.22 469.57 416.373C426.785 465.533 371.755 499.579 306.933 506.232C235.62 513.55 158.578 505.581 109.459 453.329C58.2184 398.819 45.6443 318.451 61.7337 245.389C77.2335 175.004 125.361 116.051 190.507 85.2866C252.216 56.1453 321.057 68.7796 384.964 92.7482C454.911 118.982 535.581 149.496 554.482 221.796Z" fill="#F0392D" fill-opacity="0.08"/>
<path d="M500.532 136.516L523.299 364.175C525.052 381.737 508.903 396.003 487.117 396.063L158.379 396.92C136.675 396.974 117.678 382.799 115.925 365.237L93.1583 137.578C91.3999 120.016 107.554 105.75 129.259 105.696L457.991 104.838C479.695 104.779 498.773 118.954 500.532 136.516Z" fill="white"/>
<path d="M152.019 154.461H268.055C275.433 154.461 282.105 160.47 282.92 167.848C283.734 175.227 278.389 181.241 271.011 181.241H154.975C147.596 181.241 140.924 175.227 140.104 167.848C139.29 160.47 144.641 154.461 152.019 154.461Z" fill="#551AFE"/>
<path d="M158.131 209.801H225.968C233.347 209.801 240.019 215.809 240.833 223.188C241.648 230.566 236.303 236.58 228.924 236.58H161.087C153.708 236.58 147.036 230.566 146.222 223.188C145.407 215.809 150.752 209.801 158.131 209.801Z" fill="#F0392D"/>
<path d="M270.594 209.801H292.012C299.391 209.801 306.069 215.809 306.883 223.188C307.698 230.566 302.352 236.58 294.974 236.58H273.55C266.171 236.58 259.499 230.566 258.685 223.188C257.87 215.809 263.215 209.801 270.594 209.801Z" fill="#3C2C5B"/>
<path d="M164.242 265.14H180.904C188.282 265.14 194.954 271.149 195.769 278.528C196.583 285.906 191.238 291.92 183.859 291.92H167.198C159.819 291.92 153.147 285.906 152.333 278.528C151.519 271.149 156.864 265.14 164.242 265.14Z" fill="#0099FF"/>
<path d="M225.53 265.14H325.503C332.882 265.14 339.554 271.149 340.369 278.528C341.183 285.906 335.838 291.92 328.459 291.92H228.492C221.113 291.92 214.436 285.906 213.621 278.528C212.807 271.149 218.152 265.14 225.53 265.14Z" fill="#3C2C5B"/>
<path d="M370.132 265.14H455.817C463.196 265.14 469.873 271.149 470.688 278.528C471.502 285.906 466.157 291.92 458.778 291.92H373.088C365.709 291.92 359.037 285.906 358.223 278.528C357.408 271.149 362.753 265.14 370.132 265.14Z" fill="white"/>
<path d="M170.352 320.48H223.906C231.285 320.48 237.962 326.489 238.777 333.867C239.591 341.246 234.241 347.26 226.862 347.26H173.308C165.929 347.26 159.257 341.246 158.442 333.867C157.628 326.489 162.973 320.48 170.352 320.48Z" fill="#030303"/>
<path d="M268.535 320.48H280.439C287.818 320.48 294.49 326.489 295.304 333.867C296.119 341.246 290.774 347.26 283.395 347.26H271.497C264.118 347.26 257.44 341.246 256.626 333.867C255.811 326.489 261.157 320.48 268.535 320.48Z" fill="#0099FF"/>
<path d="M325.067 320.48H395.881C403.26 320.48 409.932 326.489 410.746 333.867C411.561 341.246 406.215 347.26 398.837 347.26H328.022C320.644 347.26 313.972 341.246 313.157 333.867C312.343 326.489 317.688 320.48 325.067 320.48Z" fill="#551AFE"/>
<path d="M302.079 260.826L302.316 257.536C291.917 246.802 284.856 240.319 281.329 238.221C270.978 232.066 257.1 227.487 251.566 227.487C249.943 227.487 249.037 227.87 248.945 228.679C248.513 232.066 259.624 237.266 261.248 237.983C258.006 239.699 258.767 243.706 258.912 244.278C255.336 247.471 257.338 250.669 257.672 251.144C257.24 251.624 254.522 255.006 258.244 258.728C260.531 261.02 262.726 261.495 264.112 261.495C264.97 261.495 265.541 261.306 265.73 261.257C269.355 267.363 276.129 269.267 276.75 269.413C276.895 269.747 277.893 272.034 279.517 275.324L282.807 276.09L302.079 260.826Z" fill="#E59763"/>
<path d="M395.228 241.176V241.079C396.658 234.833 398.804 225.054 400.902 214.083C402.666 204.688 401.474 196.964 397.375 191.716C393.702 186.991 387.882 184.369 380.11 183.846C379.344 183.798 378.626 183.798 377.914 183.798C362.796 183.798 357.359 194.051 354.257 203.021C353.777 204.45 353.254 205.88 352.823 207.314C352.251 207.357 348.535 207.74 348.055 209.601C347.58 211.414 350.061 214.035 350.439 214.418C348.675 220.286 348.152 223.717 348.006 225.626C347.914 227.055 347.963 230.637 350.584 233.496C352.92 236.025 356.641 237.266 361.647 237.266C363.033 237.266 364.511 237.169 366.037 236.98L365.271 241.414L395.228 241.176Z" fill="#E59763"/>
<path opacity="0.2" d="M372.143 235.453C372.143 235.453 368.902 236.5 366.798 236.834L366.038 236.98L365.32 241.225L367.661 244.083L372.143 235.453Z" fill="#030202"/>
<path d="M413.923 336.09C424.657 334.946 432.143 328.031 433.907 317.492C435.53 307.902 429.759 281.003 418.74 264.833C408.2 249.38 395.277 246.473 393.988 246.23C394.085 245.804 394.559 243.943 395.228 241.079L395.277 240.987L365.369 240.89L364.657 244.849C358.119 245.184 351.776 246.564 345.671 248.948C336.275 252.67 319.818 273.274 318.578 274.801C317.769 273.894 310.422 265.836 302.316 257.487L302.267 257.438L279.468 275.232L279.516 275.324C285.191 286.823 299.98 313.533 314.333 314.056C314.667 314.056 315.05 314.056 315.385 314.056C324.732 314.056 333.222 309.38 338.707 305.469C344.047 301.656 347.629 297.789 348.341 297.028L357.548 335.518L413.923 336.09Z" fill="#F0392D"/>
<path opacity="0.2" d="M413.923 336.09C417.408 335.755 420.795 334.709 423.799 332.945L423.939 332.848L423.799 332.751C415.833 327.077 414.306 319.11 413.066 312.67C412.208 308.139 411.491 304.278 408.68 302.465L408.583 302.368L403.384 326.742L413.923 336.09Z" fill="#505050"/>
<path opacity="0.2" d="M353.874 290.971L348.34 297.029L357.547 335.615L372.094 336.09L353.874 290.971Z" fill="#505050"/>
<path d="M437.866 260.157C439.204 242.228 429.662 235.739 420.461 229.396C413.352 224.531 406.626 219.952 404.959 210.507C401.523 191.332 395.703 184.989 380.061 183.226C379.01 183.129 377.963 183.031 376.912 183.031C364.894 183.031 359.36 191.047 357.165 195.912C357.165 195.912 358.023 201.635 366.512 201.635C367.133 201.635 367.801 201.586 367.726 201.667C367.133 205.739 367.985 210.151 370.428 213.894L370.455 213.943L370.574 213.9C370.568 213.894 375.622 212.034 380.153 212.034C383.923 212.034 386.259 213.274 387.122 215.755C389.598 223.145 378.201 230.825 378.104 230.923H378.055V230.971C378.012 231.111 374.29 246.899 379.964 260.113L380.013 260.157H437.866Z" fill="#010005"/>
<path d="M409.874 195.389C398.887 195.389 389.981 186.484 389.981 175.497C389.981 164.515 398.887 155.61 409.874 155.61C420.855 155.61 429.76 164.515 429.76 175.497C429.76 186.484 420.855 195.389 409.874 195.389Z" fill="#010005"/>
<path d="M379.106 235.928C376.156 235.928 373.767 233.539 373.767 230.588C373.767 227.633 376.156 225.243 379.106 225.243C382.057 225.243 384.446 227.633 384.446 230.588C384.446 233.539 382.057 235.928 379.106 235.928Z" fill="white"/>
<path d="M355.353 326.457V326.36H365.606H403.433H403.481C428.282 345.631 433.578 363.28 439.204 381.974C442.397 392.611 445.693 403.582 452.656 415.599C456.135 421.656 459.997 426.144 464.484 431.387C471.874 440.022 481.081 450.804 494.15 474.267C494.484 474.887 494.819 475.507 495.153 476.128L495.056 481.279L457.661 498.021L453.514 496.02C448.648 488.388 442.208 480.373 435.962 472.6C432.052 467.735 427.996 462.676 424.323 457.719L424.134 457.433C416.167 446.651 409.296 437.352 400.617 419.272C400.428 421.802 400.283 424.423 400.234 427.099C399.997 440.308 401.572 447.843 403.524 457.433C405.482 467.066 407.963 479.035 409.296 501.025V501.408L405.914 506.462L368.519 505.939L364.749 501.548C363.416 490.578 361.173 478.177 358.977 466.16C357.548 458.096 356.162 450.421 355.164 443.835C351.011 415.934 347.009 389.607 355.353 326.457Z" fill="#61CCFF"/>
<path opacity="0.2" d="M414.07 443.312C414.021 443.215 411.637 433.533 411.157 416.128C411.017 410.977 411.017 406.349 411.017 402.293C411.017 388.603 412.112 381.592 406.961 376.823L400.478 419.035C407.247 432.913 411.017 438.593 411.017 438.593L414.07 443.312Z" fill="#343434"/>
<path d="M407.294 371.435C406.485 386.457 401.711 401.581 400.616 419.272" stroke="#343434" stroke-width="1.52658" stroke-linecap="round" stroke-linejoin="round"/>
<path d="M406.389 552.492L407.77 550.151C409.059 538.42 410.396 520.437 409.296 501.5V501.408H364.701L364.749 501.743C366.561 516.672 366.227 525.685 363.751 529.693C359.549 536.414 354.927 540.232 350.871 543.571C348.153 545.766 345.817 547.67 344.048 550.103L344.382 553.204L406.389 552.492Z" fill="#F0392D"/>
<path d="M406.388 560.696V560.599C406.388 560.551 407.057 556.592 407.769 550.152V550.06H344.048L344.004 550.103C341.858 553.016 340.854 556.354 340.854 560.599V560.696H406.388Z" fill="#271F0A"/>
<path d="M510.989 524.876L511.701 521.581C508.983 509.898 503.929 492.487 495.153 476.128L495.104 476.031L453.416 495.923L453.465 496.02C460.38 506.894 463.098 515.432 462.003 522.918C460.903 530.502 458.47 535.799 456.329 540.47C454.802 543.76 453.61 546.721 453.033 549.725L455.514 551.726L510.989 524.876Z" fill="#F0392D"/>
<path d="M513.944 532.46C513.944 532.363 513.276 528.167 511.749 521.629L511.701 521.538L453.033 549.677C452.37 553.301 452.941 556.829 454.845 560.696L454.894 560.788L513.944 532.46Z" fill="#271F0A"/>
<path d="M353.255 219.666C354.021 220.189 356.405 220.286 357.883 218.614" stroke="#030202" stroke-width="1.52658" stroke-linecap="round" stroke-linejoin="round"/>
<path d="M357.882 211.937C358.691 211.937 359.311 211.268 359.311 210.507C359.311 209.747 358.642 209.078 357.882 209.078C357.067 209.078 356.452 209.747 356.452 210.507C356.452 211.268 357.116 211.937 357.882 211.937Z" fill="#171314"/>
<path d="M365.801 237.071C368.994 236.645 371.524 235.928 371.524 235.928" stroke="#030202" stroke-width="1.52658" stroke-linecap="round" stroke-linejoin="round"/>
<path d="M373.384 222.956L377.677 221.047" stroke="#030202" stroke-width="1.52658" stroke-linecap="round" stroke-linejoin="round"/>
<path d="M409.873 297.837L403.433 326.457H355.499" stroke="#505050" stroke-width="1.52658" stroke-linecap="round" stroke-linejoin="round"/>
<path d="M413.924 314.531L406.675 312.147" stroke="#505050" stroke-width="1.52658" stroke-linecap="round" stroke-linejoin="round"/>
<path d="M348.39 296.931C351.917 293.544 355.256 289.731 355.256 289.731" stroke="#505050" stroke-width="1.52658" stroke-linecap="round" stroke-linejoin="round"/>
<path d="M318.578 274.995V283.291" stroke="#505050" stroke-width="1.52658" stroke-linecap="round" stroke-linejoin="round"/>
<path d="M302.267 257.584L279.656 275.281" stroke="#505050" stroke-width="1.52658" stroke-linecap="round" stroke-linejoin="round"/>
<path d="M365.735 523.307L374.813 524.396" stroke="#271F0A" stroke-width="1.52658" stroke-linecap="round" stroke-linejoin="round"/>
<path d="M363.8 529.995L370.806 534.984" stroke="#271F0A" stroke-width="1.52658" stroke-linecap="round" stroke-linejoin="round"/>
<path d="M460.897 510.642L470.682 508.183" stroke="#271F0A" stroke-width="1.52658" stroke-linecap="round" stroke-linejoin="round"/>
<path d="M462.747 520.146L472.591 519.148" stroke="#271F0A" stroke-width="1.52658" stroke-linecap="round" stroke-linejoin="round"/>
<path d="M409.204 501.5H364.846" stroke="#271F0A" stroke-width="1.52658" stroke-linecap="round" stroke-linejoin="round"/>
<path d="M453.61 495.971L495.056 476.176" stroke="#271F0A" stroke-width="1.52658" stroke-linecap="round" stroke-linejoin="round"/>
<path d="M261.534 237.983C264.538 237.837 267.5 238.22 270.358 239.175" stroke="#030202" stroke-width="1.52658" stroke-linecap="round" stroke-linejoin="round"/>
<path d="M259.054 244.278C262.727 243.463 267.975 245.373 267.975 245.373" stroke="#030202" stroke-width="1.52658" stroke-linecap="round" stroke-linejoin="round"/>
<path d="M257.812 251.144C261.772 250.621 266.065 252.05 266.065 252.05" stroke="#030202" stroke-width="1.52658" stroke-linecap="round" stroke-linejoin="round"/>
<path d="M113.781 200.299L74.2733 193.585C65.2788 192.043 56.7203 198.077 55.2106 207.125L48.4966 246.637C46.9604 255.627 52.9939 264.185 62.0415 265.695L101.549 272.409C110.543 273.95 119.097 267.917 120.612 258.869L127.32 219.356C128.809 210.394 122.775 201.835 113.781 200.299Z" fill="#F0392D"/>
<path d="M97.3604 224.582L105.972 236.739Z" fill="#F0392D"/>
<path d="M97.3604 224.582L105.972 236.739" stroke="#FFFEFC" stroke-width="1.52658" stroke-linecap="round" stroke-linejoin="round"/>
<path d="M107.747 226.352L95.5898 234.969Z" fill="#F0392D"/>
<path d="M107.747 226.352L95.5898 234.969" stroke="#FFFEFC" stroke-width="1.52658" stroke-linecap="round" stroke-linejoin="round"/>
<path d="M70.9355 220.074L79.5473 232.237Z" fill="#F0392D"/>
<path d="M70.9355 220.074L79.5473 232.237" stroke="#FFFEFC" stroke-width="1.52658" stroke-linecap="round" stroke-linejoin="round"/>
<path d="M81.3223 221.85L69.1064 230.493Z" fill="#F0392D"/>
<path d="M81.3223 221.85L69.1064 230.493" stroke="#FFFEFC" stroke-width="1.52658" stroke-linecap="round" stroke-linejoin="round"/>
<path d="M90.0542 246.462L80.8896 244.873Z" fill="#F0392D"/>
<path d="M90.0542 246.462L80.8896 244.873" stroke="#FFFEFC" stroke-width="1.52658" stroke-linecap="round" stroke-linejoin="round"/>
<path d="M150.508 449.795L127.548 436.402L153.116 439.356L153.021 416.646L163.531 438.017L180.9 418.757L171.408 442.76L189.399 444.425L171.584 451.535L184.801 471.066L164.674 457.773L157.99 477.354L156.445 456.825L135.526 466.869L150.508 449.795Z" fill="#551AFE"/>
<path d="M476.83 181.186L453.869 167.793L479.437 170.747L479.342 148.037L489.852 169.408L507.221 150.148L497.729 174.151L515.721 175.816L497.905 182.926L511.123 202.457L490.995 189.164L484.311 208.745L482.767 188.217L461.847 198.26L476.83 181.186Z" fill="#F0392D"/>
</svg>
